<svg xmlns="http://www.w3.org/2000/svg" viewBox="0 0 1000 1000"><path d="M430.88 123.9c-102.34 4.03-187.4 17.28-254.41 39.36-70.08 22.85-125.57 60.48-149.38 101-9.02 15.36-16.71 39.17-16.71 51.84v9.4l144.39-.38 144.58-.58-.38-15.36c-.19-12.48-1.73-19.39-7.87-36.87l-7.68-21.7 7.1-1.73c48.19-12.67 370.76-12.67 418.96 0l7.1 1.73-7.68 21.7c-6.14 17.47-7.68 24.39-7.87 36.87l-.38 15.36 144.58.58 144.39.38v-9.6c0-21.12-15.17-54.34-34.95-75.84-10.37-11.33-33.99-30.53-50.5-40.71-18.24-11.52-54.15-27.46-82.75-36.86-93.32-30.72-234.25-44.74-390.54-38.59zM10.77 376.58c.58 25.92.58 26.11 5.95 30.72l5.38 4.61h132.48c91.2 0 133.83-.58 136.52-2.11 6.72-3.65 9.22-13.44 9.22-37.25v-22.08H10l.77 26.11zm688.92-4.04c0 23.81 2.5 33.6 9.22 37.25 2.69 1.54 45.31 2.11 136.52 2.11H977.9l5.38-4.61c5.38-4.61 5.38-4.8 5.95-30.72l.77-26.11H699.69v22.08zm-340.24-5.76c-6.91 3.84-7.49 6.72-7.87 34.18-.58 28.03-2.5 32.64-15.17 35.91-4.61 1.15-11.33 3.65-14.98 5.38-4.8 2.3-39.94 42.82-123.27 141.51-92.54 109.82-117.12 140.16-120 147.84-3.07 8.64-3.46 16.51-3.46 73.35v63.75l4.42 4.42 4.42 4.42h832.92l4.42-4.42 4.42-4.42V739.28l-5.18-10.56c-7.3-15.17-232.52-282.06-241.54-286.28-3.65-1.73-10.56-4.42-15.36-5.76-12.87-4.03-15.36-10.18-15.36-39.17-.19-31.49-2.11-33.6-31.49-33.6-16.51 0-18.82.38-23.62 4.61-5.38 4.61-5.38 4.99-6.34 31.68-.96 26.31-1.15 27.07-6.34 32.26l-5.18 5.38H425.12l-5.18-5.38c-5.18-5.18-5.38-5.95-6.34-32.26-.96-26.69-.96-27.07-6.34-31.68-4.99-4.22-7.1-4.61-24-4.61-12.48.19-20.35 1.15-23.81 2.87zm91.78 145.35c-.77 7.68-1.73 18.62-2.3 24l-1.15 10.18h-24.77c-21.5 0-24.77-.38-24.77-3.07 0-3.65 5.57-38.98 6.72-42.62.58-1.73 7.1-2.3 24.19-2.3h23.42l-1.34 13.81zm72.58-4.99c.58 4.99 1.15 15.74 1.15 24v15.17h-49.92v-16.9c0-9.22.58-19.97 1.15-24l1.34-7.1h44.93l1.35 8.83zm74.5 11.33c5.18 30.91 7.49 27.84-21.31 27.84h-24.77l-1.15-10.18c-.58-5.38-1.54-16.32-2.31-24l-1.34-14.02 23.81.58 23.61.58 3.46 19.2zm-153.22 65.28c-.19 4.22-.96 14.79-1.73 23.43l-1.34 15.94h-27.65c-20.93 0-27.65-.58-27.65-2.5 0-2.5 5.18-34.18 6.72-41.28.96-4.22 1.34-4.42 26.5-3.84l25.35.58-.2 7.67zm81.41 15.75l.58 23.62h-53.96v-22.66c0-12.48.58-23.42 1.34-24.19.77-.58 12.67-.96 26.3-.77l25.15.58.59 23.42zm80.06-20.16c1.54 7.3 6.72 38.78 6.72 41.28 0 1.92-6.91 2.5-27.84 2.5-27.65 0-27.84 0-27.84-4.42 0-2.3-.96-12.29-1.92-22.08-1.15-9.98-1.54-18.82-.77-19.78.57-.96 12.09-1.73 25.73-1.73 24.19 0 24.96.19 25.92 4.23zm-167.43 75.84c.38.96-.19 11.71-1.15 24l-1.92 22.66h-30.53c-16.7 0-30.34-.58-30.34-1.54 0-2.11 5.57-37.25 6.72-42.24.96-4.22 1.54-4.22 28.8-4.22 15.18-.01 28.04.57 28.42 1.34zm89.67 9.6c0 6.14.58 16.9 1.34 24l1.15 13.06h-62.6l1.34-14.79c.58-8.06 1.15-18.82 1.15-24v-9.22h57.6v10.95zm89.09-6.72c1.15 5.57 6.91 40.9 6.91 42.62 0 .58-13.63 1.15-30.34 1.15h-30.53l-1.92-22.66c-.96-12.29-1.54-23.04-1.15-24 .38-.77 13.25-1.34 28.42-1.34 27.27 0 27.84 0 28.61 4.23z"/></svg>