<svg viewBox="0 0 125 110" xmlns="http://www.w3.org/2000/svg"><g clip-rule="evenodd" fill-rule="evenodd"><path d="M124.167 55.057c0 11.363-1.188 25.49-2.376 33.476-1.18 7.985-3.86 8.907-8.31 10.75-19 6.45-38.01 8.6-51.08 8.6-13.06 0-32.07-2.15-51.07-8.6-4.45-1.843-7.13-2.763-8.31-10.75C1.82 80.548.63 66.42.63 55.057c0-11.364 1.19-25.49 2.377-33.477 1.188-7.986 3.86-8.907 8.315-10.75 19-6.45 38.01-8.6 51.07-8.6s32.07 2.15 51.08 8.6c4.45 1.843 7.122 2.764 8.31 10.75 1.187 7.986 2.376 22.114 2.376 33.477z" fill="#ed1c24"/><path d="M21.77 24.163l4.042 16.832h-3.55l-.625-2.835h-3.37l-.604 2.835H14.36l3.906-16.832h3.505z" fill="#fff"/><path d="M20.297 31.04l-.38-2.547h-.044l-.357 2.546-.714 4.48h2.344l-.85-4.49z" fill="#ed1c24"/><path d="M34.07 27.958c-.67-.58-1.497-1.07-2.412-1.07-1.027 0-1.674.624-1.674 1.65 0 2.77 5.068 2.926 5.068 7.48 0 2.99-1.72 5.246-4.845 5.246-.938 0-2.1-.29-2.858-.848v-3.17c.78.536 1.54.893 2.52.893 1.07 0 1.92-.72 1.92-1.84 0-1.3-1.03-1.79-1.97-2.46-1.92-1.3-3.11-2.55-3.11-5 0-2.66 1.54-4.96 4.4-4.96 1.07 0 2.03.29 2.94.82v3.235zm14.526 0c-.67-.58-1.496-1.07-2.41-1.07-1.028 0-1.675.624-1.675 1.65 0 2.77 5.07 2.926 5.07 7.48 0 2.99-1.72 5.246-4.84 5.246-.94 0-2.1-.29-2.86-.848v-3.17c.78.536 1.54.893 2.53.893 1.08 0 1.92-.72 1.92-1.84 0-1.3-1.02-1.79-1.96-2.46-1.92-1.3-3.1-2.55-3.1-5 0-2.66 1.54-4.96 4.4-4.96 1.076 0 2.036.29 2.95.82v3.235zm9.6-3.795v3.125h-3.373v3.66h2.97v3.127h-2.97v3.795h3.416v3.125h-6.75V24.163h6.69zm9.254 0v3.125h-3.37v3.66h2.968v3.127h-2.97v3.795h3.417v3.125h-6.742V24.163zm5.497 0L77.1 34.32l.044-.044c-.2-.804-.267-1.675-.267-2.545v-7.56h3.326V41h-3.147l-4.108-10.16-.045.044.156 1.697.02.7V41h-3.33V24.162h3.19zm25.28 8.417c0 6.317-2.946 8.683-5.915 8.683-2.97 0-5.916-2.366-5.916-8.684 0-6.32 2.947-8.69 5.916-8.69 2.97 0 5.916 2.36 5.916 8.68z" fill="#fff"/><path d="M92.312 38.182c2.21 0 2.366-4.264 2.366-5.603 0-1.5-.157-5.61-2.366-5.61-2.21 0-2.367 4.11-2.367 5.6 0 1.34.157 5.6 2.367 5.6z" fill="#ed1c24"/><path d="M103.18 24.163l4.152 10.158.045-.04c-.2-.8-.268-1.67-.268-2.54v-7.57h3.32V41h-3.15l-4.11-10.158-.05.045.15 1.697.02.693V41h-3.32V24.162h3.19zM16.033 44.93h58.705l9.352 25.716L95.78 44.93h20.78L92.92 92.205H74.74l-13.51-33.25H47.205v33.25h-20.26v-33.25h-10.91V44.93z" fill="#fff"/></g></svg>