<svg viewBox="0 0 190 220" xmlns="http://www.w3.org/2000/svg"><g fill="#055e82"><path d="M95 219.392l-95-54.85V54.847L95 0l95 54.848V164.54zM4.938 161.69l90.062 52 90.062-52V57.7L95 5.7l-90.062 52z"/><path d="M117.5 92.736c-4.106 0-8.044.738-11.688 2.085V82.1c0-14.847-12.08-26.926-26.926-26.926S51.96 67.248 51.96 82.092v51.348c0 14.845 12.08 26.924 26.926 26.924 6.68 0 13.142-2.524 18.07-6.982 5.7 4.374 12.822 6.982 20.545 6.982 18.65 0 33.82-15.17 33.82-33.815 0-18.65-15.17-33.82-33.81-33.82zm28.755 32.165H88.752c.003-.05.002-.1.006-.15.01-.18.027-.36.042-.55.035-.43.08-.86.134-1.28.024-.19.046-.38.073-.57.08-.54.173-1.08.28-1.61.053-.25.116-.5.175-.75.067-.29.137-.57.213-.86.086-.32.175-.64.272-.96.05-.16.104-.32.155-.48 1.836-5.65 5.372-10.54 10.005-14.06l.328-.24c.288-.213.58-.42.875-.624.364-.25.734-.49 1.11-.72.196-.12.395-.237.594-.353.386-.223.777-.442 1.177-.65 3.99-2.09 8.51-3.274 13.32-3.274 15.33.005 27.9 12.04 28.76 27.16zm-67.37-64.72c12.086 0 21.917 9.84 21.917 21.92v15.05c-.144.08-.28.18-.42.26-.304.18-.602.36-.898.55-3.947 2.48-7.277 5.69-9.843 9.41H56.97V82.09c0-12.085 9.83-21.916 21.916-21.916zm0 95.18c-12.084 0-21.915-9.83-21.915-21.91v-23.57h31.103c-1.15 2.03-2.084 4.19-2.794 6.43-.06.17-.11.34-.16.51-.12.41-.24.81-.35 1.22-.09.33-.16.67-.24 1.01-.11.45-.2.907-.28 1.36-.09.44-.16.885-.23 1.33-.04.25-.07.5-.1.75-.06.46-.1.92-.14 1.386-.02.22-.04.437-.05.656-.04.68-.07 1.364-.07 2.05 0 .564.01 1.12.04 1.68.013.33.043.657.07.984.012.22.023.44.05.654.04.43.1.86.152 1.285.013.107.024.217.04.325.07.486.155.964.246 1.44l.03.15c.1.507.21 1.01.332 1.51l.012.06c.123.51.26 1.01.41 1.507l.013.058c.15.49.304.973.472 1.453l.03.097c.16.458.33.91.51 1.356l.076.19c.165.41.34.816.524 1.218l.14.317c.164.35.336.7.51 1.05.08.15.156.304.236.455.155.294.316.58.48.87.114.204.23.41.35.61.14.23.28.457.42.683.16.253.32.505.485.754.116.17.23.34.35.51.207.296.41.59.627.88l.27.355c.25.328.502.65.764.97.06.08.13.16.192.237.29.35.585.69.89 1.026.045.055.094.106.142.16.203.223.403.45.613.67-3.952 3.4-9.043 5.31-14.3 5.31zm38.616 0c-7.41 0-14.18-2.82-19.3-7.44l-.22-.21c-.28-.26-.55-.52-.82-.79l-.05-.05c-.87-.87-1.68-1.81-2.44-2.79-.08-.11-.17-.21-.25-.32-.15-.2-.29-.4-.43-.61-.14-.2-.29-.4-.42-.61-.11-.16-.214-.33-.32-.5-.166-.25-.33-.51-.487-.78-.08-.13-.154-.27-.23-.4-.173-.306-.346-.616-.51-.93l-.16-.316c-.18-.354-.355-.71-.52-1.07l-.106-.23c-.176-.396-.344-.794-.502-1.196l-.06-.152c-.164-.43-.32-.86-.47-1.3l-.03-.09c-.15-.456-.29-.917-.415-1.38l-.02-.057c-.13-.47-.245-.947-.35-1.425-.003-.013-.01-.03-.01-.05-.103-.47-.19-.94-.27-1.42l-.015-.08c-.077-.453-.137-.912-.19-1.372-.004-.05-.012-.096-.02-.146-.045-.436-.077-.875-.104-1.314-.002-.075-.01-.145-.014-.22-.01-.22-.01-.445-.02-.67h57.57c-.46 15.49-13.19 27.95-28.787 27.95z"/></g></svg>