<svg id="Layer_1" xmlns="http://www.w3.org/2000/svg" viewBox="0 0 200 200"><style>.st0{fill:#055E82;}</style><path d="M72.45 140.843c-10.91 0-21.166-4.248-28.88-11.963S31.607 110.91 31.607 100s4.248-21.166 11.963-28.88 17.97-11.963 28.88-11.963 21.166 4.248 28.88 11.963c7.714 7.714 11.963 17.97 11.963 28.88s-4.248 21.166-11.963 28.88c-7.714 7.714-17.97 11.963-28.88 11.963zm0-74.315c-18.456 0-33.472 15.015-33.472 33.472s15.015 33.472 33.472 33.472 33.472-15.015 33.472-33.472S90.906 66.528 72.45 66.528zm85.136 101.788c-8.365 0-15.17-6.806-15.17-15.17 0-8.366 6.805-15.172 15.17-15.172s15.17 6.806 15.17 15.17c0 8.366-6.805 15.172-15.17 15.172zm0-25.617c-5.76 0-10.446 4.68-10.446 10.44s4.686 10.442 10.446 10.442 10.446-4.686 10.446-10.446-4.686-10.446-10.446-10.446zm10.73-27.53c-8.365 0-15.17-6.81-15.17-15.17s6.805-15.17 15.17-15.17 15.17 6.8 15.17 15.17-6.805 15.17-15.17 15.17zm0-25.62c-5.76 0-10.446 4.682-10.446 10.442s4.686 10.445 10.446 10.445 10.446-4.686 10.446-10.446-4.686-10.446-10.446-10.446zM110.54 200c-8.366 0-15.172-6.806-15.172-15.17s6.806-15.172 15.17-15.172c8.366 0 15.172 6.806 15.172 15.17S118.904 200 110.54 200zm0-25.617c-5.76 0-10.447 4.686-10.447 10.446s4.686 10.44 10.446 10.44 10.44-4.69 10.44-10.45-4.69-10.447-10.45-10.447zm47.046-112.357c-8.365 0-15.17-6.806-15.17-15.17 0-8.366 6.805-15.172 15.17-15.172s15.17 6.806 15.17 15.17c0 8.366-6.805 15.172-15.17 15.172zm0-25.617c-5.76 0-10.446 4.68-10.446 10.44s4.686 10.45 10.446 10.45 10.446-4.69 10.446-10.45-4.686-10.447-10.446-10.447zm-47.046-6.07c-8.366 0-15.172-6.81-15.172-15.17S102.173 0 110.538 0c8.366 0 15.172 6.806 15.172 15.17s-6.806 15.172-15.17 15.172zm0-25.62c-5.76 0-10.447 4.682-10.447 10.442s4.687 10.45 10.447 10.45 10.444-4.686 10.444-10.446-4.684-10.44-10.444-10.44z"/><path class="st0" d="M72.45 155.202c-14.745 0-28.607-5.742-39.034-16.168C22.99 128.608 17.248 114.744 17.248 100s5.742-28.608 16.168-39.034C43.842 50.54 57.706 44.798 72.45 44.798c14.745 0 28.608 5.742 39.034 16.168 10.426 10.426 16.168 24.29 16.168 39.034s-5.742 28.608-16.168 39.034c-10.427 10.426-24.29 16.168-39.034 16.168zm0-105.68c-13.483 0-26.16 5.252-35.693 14.785C27.223 73.84 21.973 86.517 21.973 100c0 13.483 5.25 26.16 14.784 35.693 9.534 9.534 22.21 14.784 35.693 14.784 13.483 0 26.16-5.25 35.693-14.784 9.534-9.534 14.784-22.21 14.784-35.693 0-13.483-5.25-26.16-14.784-35.693-9.534-9.534-22.21-14.784-35.693-14.784z"/><path class="st0" d="M72.45 120.7c-11.414 0-20.7-9.285-20.7-20.7 0-7.782 4.298-14.834 11.217-18.405 1.16-.6 2.584-.144 3.183 1.016.6 1.16.144 2.59-1.016 3.19-5.342 2.76-8.66 8.2-8.66 14.21 0 8.81 7.167 15.977 15.976 15.977 8.81 0 15.976-7.167 15.976-15.976 0-1.304 1.058-2.36 2.362-2.36 1.305 0 2.362 1.057 2.362 2.36 0 11.414-9.286 20.7-20.7 20.7z"/><path class="st0" d="M90.788 102.362c-1.305 0-2.362-1.058-2.362-2.362 0-6.006-3.32-11.45-8.66-14.207-1.16-.598-1.614-2.023-1.016-3.183.598-1.16 2.023-1.614 3.183-1.016C88.853 85.166 93.15 92.22 93.15 100c0 1.305-1.057 2.362-2.362 2.362zM72.45 91.63c-1.305 0-2.362-1.058-2.362-2.362V75.96c0-1.305 1.058-2.362 2.362-2.362 1.305 0 2.362 1.058 2.362 2.362v13.307c0 1.305-1.058 2.363-2.362 2.363zm9.355-25.295c-.405 0-.815-.104-1.19-.323-1.126-.66-1.506-2.106-.847-3.232l22.184-37.938c.66-1.126 2.106-1.506 3.232-.847 1.126.66 1.506 2.106.847 3.232L83.85 65.164c-.44.752-1.23 1.17-2.042 1.17zm22.19 109.983c-.813 0-1.603-.42-2.043-1.17l-22.184-37.94c-.66-1.125-.28-2.572.847-3.23 1.126-.66 2.573-.28 3.232.846l22.184 37.94c.66 1.125.28 2.572-.84 3.23-.372.22-.782.324-1.19.324zm50.305-73.956h-44.693c-1.305 0-2.362-1.058-2.362-2.362s1.058-2.362 2.362-2.362H154.3c1.304 0 2.36 1.058 2.36 2.362s-1.056 2.362-2.36 2.362zm-49.522-19.567c-.77 0-1.527-.377-1.98-1.07-.714-1.092-.407-2.556.685-3.27l41.682-27.238c1.092-.714 2.556-.407 3.27.685s.407 2.556-.685 3.27L106.068 82.41c-.398.26-.847.385-1.29.385zM146.456 148c-.443 0-.89-.124-1.29-.384l-41.682-27.238c-1.092-.714-1.4-2.178-.685-3.27.71-1.092 2.17-1.4 3.27-.685l41.68 27.238c1.09.72 1.4 2.18.68 3.27-.456.7-1.21 1.07-1.98 1.07z"/></svg>