<svg viewBox="0 0 440 80" xmlns="http://www.w3.org/2000/svg"><path d="M50.423 28.536L39.988 4.806l-10.425 23.73-26.07 2.784.003.002h-.003.003l19.622 17.04-5.685 25.862L39.99 60.62l22.558 13.604-5.678-25.86L76.498 31.32h.003v-.002zm90.122 0L130.11 4.806l-10.425 23.73-26.07 2.784.003.002h-.002.002l19.623 17.04-5.68 25.862 22.56-13.604 22.56 13.604-5.68-25.86 19.62-17.044h.007-.003l.004-.002zm90.122 0l-10.435-23.73-10.425 23.73-26.07 2.784.004.002h.01l19.62 17.04-5.68 25.862 22.55-13.604 22.556 13.604v-.002l.002.002v-.002l-5.678-25.86 19.628-17.04h.002-.002l.002-.002zm90.123 0l-10.436-23.73-10.426 23.73-26.068 2.784.003.002h-.003.003l19.62 17.04-5.684 25.862 22.55-13.604 22.55 13.604v-.004.004l-.003-.004-5.676-25.857 19.63-17.04v-.002.01zm116.198 2.784l-26.077-2.784-10.43-23.73-10.42 23.73-26.065 2.784.003.002h-.003l19.62 17.04-5.685 25.862 22.55-13.604 22.557 13.604v-.004.004-.004l-5.678-25.857 19.62-17.04v-.002l-.005.01z" fill="#ffbc00"/></svg>