<svg xmlns="http://www.w3.org/2000/svg" width="512" height="512" viewBox="0 0 484.566 484.566"><g fill="#FFF"><path d="M360.342 216.266l-140.97-102.384c-9.782-7.106-22.722-8.12-33.497-2.63-10.77 5.49-17.556 16.56-17.556 28.65V344.67c0 12.092 6.78 23.158 17.55 28.646 4.61 2.348 9.61 3.506 14.6 3.506 6.66 0 13.3-2.07 18.9-6.138L360.34 268.3c8.33-6.046 13.256-15.718 13.256-26.017 0-10.295-4.928-19.97-13.258-26.017z"/><path d="M242.285 0C108.688 0 .005 108.69.005 242.283c0 133.592 108.685 242.283 242.28 242.283 133.594 0 242.278-108.69 242.278-242.283S375.88 0 242.285 0zm0 425.027c-100.764 0-182.744-81.98-182.744-182.744 0-100.766 81.98-182.742 182.75-182.742s182.74 81.98 182.74 182.75-81.98 182.74-182.74 182.74z"/></g></svg>