<svg id="Layer_1" xmlns="http://www.w3.org/2000/svg" viewBox="0 0 200 200"><style>.st0{fill:#055E82;}</style><path class="st0" d="M101.338 132.512c-1.294 0-2.343-1.05-2.343-2.343V62c0-1.294 1.05-2.343 2.343-2.343 1.294 0 2.343 1.05 2.343 2.343v68.165c0 1.292-1.05 2.34-2.34 2.34z"/><path class="st0" d="M138.753 73.743c-.505 0-1.018-.105-1.508-.328-1.838-.834-2.652-3-1.818-4.838.94-2.068 1.414-4.28 1.414-6.573 0-8.78-7.14-15.925-15.92-15.925-8.78 0-15.92 7.14-15.92 15.92 0 2.02-1.63 3.65-3.65 3.65s-3.65-1.64-3.65-3.66c0-12.81 10.43-23.24 23.24-23.24 12.81 0 23.23 10.42 23.23 23.23 0 3.34-.69 6.57-2.07 9.59-.61 1.35-1.93 2.14-3.32 2.14z"/><path class="st0" d="M131.23 120.875c-1.136 0-2.134-.83-2.312-1.988-.196-1.28.68-2.475 1.96-2.67 14.755-2.266 24.917-16.113 22.652-30.87-1.296-8.443-6.352-15.624-13.872-19.702-1.137-.617-1.56-2.04-.943-3.176.617-1.14 2.04-1.56 3.176-.95 4.22 2.28 7.92 5.55 10.71 9.44 2.93 4.08 4.8 8.68 5.57 13.67 2.66 17.31-9.26 33.55-26.57 36.21-.12.02-.24.03-.36.03z"/><path class="st0" d="M123.404 151.41c-1.22 0-2.248-.945-2.335-2.18-.09-1.29.88-2.41 2.17-2.5 4-.28 7.91-1.578 11.31-3.756 4.84-3.1 8.42-7.832 10.08-13.325 1.64-5.44 1.32-11.29-.9-16.48-.51-1.19.04-2.57 1.23-3.08 1.19-.51 2.56.04 3.07 1.23 2.65 6.2 3.03 13.18 1.07 19.67-1.99 6.56-6.26 12.21-12.04 15.91-4.06 2.6-8.74 4.15-13.52 4.48-.06 0-.12.01-.17.01z"/><path class="st0" d="M117.175 159.918c-10.024 0-18.18-8.155-18.18-18.18v-32.73c0-1.294 1.05-2.343 2.343-2.343 1.294 0 2.343 1.05 2.343 2.343v32.73c0 7.44 6.06 13.495 13.5 13.495 5.16 0 9.95-3.03 12.19-7.717.56-1.167 1.96-1.66 3.13-1.103 1.17.558 1.66 1.957 1.11 3.124-3.02 6.306-9.46 10.38-16.41 10.38zM129.2 66.33c-1.294 0-2.343-1.05-2.343-2.344 0-5.193-4.225-9.417-9.417-9.417-1.294 0-2.343-1.05-2.343-2.35s1.05-2.35 2.343-2.35c7.776 0 14.103 6.32 14.103 14.1 0 1.29-1.05 2.34-2.343 2.34z"/><path class="st0" d="M110.937 120.89c-1.26 0-2.3-1.002-2.34-2.27-.193-6.21 3.62-11.743 9.487-13.77 1.223-.423 2.557.226 2.98 1.45.42 1.222-.228 2.556-1.45 2.978-3.918 1.353-6.464 5.05-6.335 9.195.04 1.293-.98 2.374-2.27 2.414l-.08.003zm10.807 20.276c-1.89 0-3.758-.473-5.462-1.403-2.424-1.324-4.286-3.478-5.243-6.066-.45-1.214.17-2.56 1.38-3.01 1.21-.45 2.56.17 3.01 1.385.56 1.526 1.66 2.797 3.09 3.578 1.58.864 3.4 1.06 5.13.552s3.15-1.658 4.02-3.24c.62-1.136 2.04-1.553 3.18-.934 1.13.62 1.55 2.043.93 3.18-1.47 2.68-3.88 4.63-6.81 5.49-1.07.312-2.16.468-3.24.468z"/><path class="st0" d="M111.146 142.175c-1.294 0-2.343-1.05-2.343-2.343 0-7.472 5.063-13.932 12.31-15.708 1.258-.308 2.526.46 2.834 1.718.308 1.257-.46 2.525-1.718 2.833-5.15 1.26-8.75 5.85-8.75 11.157 0 1.294-1.05 2.343-2.34 2.343zm2.564-44.21c-.586 0-1.174-.22-1.63-.66-.928-.9-.952-2.383-.05-3.313 1.33-1.373 2.884-4.79 2.884-9.895 0-3.64-.846-7.05-2.262-9.122-.73-1.068-.456-2.526.61-3.256 1.07-.73 2.527-.46 3.257.61 1.95 2.86 3.08 7.15 3.08 11.76 0 5.52-1.58 10.44-4.21 13.15-.46.47-1.07.71-1.69.71z"/><path class="st0" d="M117.42 85.78c-1.264 0-2.306-1.007-2.342-2.278-.036-1.293.982-2.37 2.276-2.408 1.637-.046 2.968-1.94 2.907-4.134-.03-1.293.99-2.37 2.28-2.408 1.29-.035 2.37.982 2.41 2.276.14 4.815-3.21 8.83-7.46 8.95h-.07zm14.432 21.727c-1.306 0-2.625-.158-3.933-.483-1.26-.312-2.02-1.583-1.71-2.84.31-1.255 1.58-2.02 2.84-1.707 4.51 1.12 9.22-.555 12.01-4.27 3.82-5.086 2.78-12.33-2.3-16.15-1.04-.776-1.25-2.244-.47-3.28.77-1.033 2.24-1.243 3.28-.466 7.15 5.37 8.6 15.56 3.23 22.71-3.12 4.15-7.94 6.49-12.96 6.49z"/><path class="st0" d="M142.714 99.96c-2.244 0-4.386-.688-6.087-1.965-1.975-1.483-3.132-3.57-3.256-5.875-.07-1.292.93-2.396 2.22-2.466 1.29-.068 2.4.92 2.47 2.213.05.9.55 1.745 1.39 2.382.98.73 2.26 1.09 3.62 1.01 1.29-.07 2.4.92 2.47 2.21.07 1.29-.92 2.39-2.21 2.46-.2.01-.4.01-.59.01z"/><path class="st0" d="M117.174 162.892c-11.664 0-21.154-9.49-21.154-21.154V62.005c0-13.728 11.168-24.896 24.896-24.896 13.182 0 24.003 10.29 24.844 23.27 3.596 2.35 6.77 5.38 9.256 8.85 3.2 4.46 5.247 9.49 6.085 14.95 1.41 9.17-.84 18.34-6.32 25.82-.87 1.18-1.81 2.31-2.82 3.37 1.82 5.98 1.84 12.46.02 18.48-2.19 7.24-6.9 13.47-13.28 17.56-.78.5-1.59.97-2.42 1.4-1.7 3.55-4.35 6.55-7.66 8.69-3.42 2.2-7.37 3.37-11.43 3.37zm3.742-118.474c-9.697 0-17.587 7.89-17.587 17.587v79.733c0 7.634 6.21 13.845 13.84 13.845 2.65 0 5.23-.762 7.47-2.204 2.05-1.33 3.71-3.15 4.83-5.31.08-1.34.89-2.55 2.14-3.11 1.08-.49 2.13-1.06 3.13-1.7 4.91-3.15 8.54-7.95 10.22-13.52 1.59-5.25 1.36-10.94-.63-16.02-.55-1.41-.18-3.01.93-4.03 1.32-1.22 2.53-2.57 3.6-4.03 4.33-5.91 6.1-13.15 4.99-20.39-.66-4.32-2.28-8.29-4.8-11.81-2.29-3.19-5.31-5.91-8.74-7.87-1.17-.666-1.87-1.91-1.85-3.25v-.374c0-9.696-7.89-17.585-17.585-17.585z"/><path class="st0" d="M99.15 132.512c-1.293 0-2.342-1.05-2.342-2.343V62c0-1.294 1.05-2.343 2.343-2.343 1.3 0 2.35 1.05 2.35 2.343v68.165c0 1.292-1.05 2.34-2.34 2.34z"/><path class="st0" d="M61.735 72.43c-.89 0-1.742-.51-2.135-1.374-1.294-2.852-1.95-5.897-1.95-9.05 0-12.09 9.834-21.923 21.922-21.923 12.088 0 21.922 9.834 21.922 21.922 0 1.294-1.05 2.343-2.343 2.343s-2.34-1.05-2.34-2.343c0-9.504-7.73-17.237-17.23-17.237S62.35 52.5 62.35 62.005c0 2.482.515 4.875 1.53 7.115.536 1.178.014 2.567-1.164 3.102-.314.14-.643.21-.967.21z"/><path class="st0" d="M69.258 120.875c-.118 0-.238-.01-.358-.027-17.31-2.657-29.23-18.9-26.572-36.21.766-4.993 2.638-9.593 5.563-13.672 2.79-3.888 6.49-7.152 10.71-9.44 1.14-.616 2.56-.194 3.18.944.62 1.137.2 2.56-.94 3.176-7.52 4.078-12.57 11.26-13.87 19.703-2.26 14.75 7.9 28.6 22.65 30.86 1.28.19 2.16 1.39 1.96 2.67-.17 1.16-1.17 1.99-2.31 1.99z"/><path class="st0" d="M77.085 151.41c-.055 0-.11-.002-.165-.006-4.78-.333-9.454-1.884-13.514-4.484-5.78-3.702-10.055-9.353-12.04-15.914-1.96-6.488-1.58-13.474 1.076-19.672.51-1.19 1.887-1.74 3.076-1.23 1.19.508 1.74 1.886 1.23 3.075-2.22 5.18-2.54 11.03-.896 16.47 1.66 5.49 5.24 10.22 10.08 13.32 3.402 2.18 7.314 3.47 11.314 3.75 1.29.09 2.264 1.21 2.174 2.5-.087 1.23-1.115 2.18-2.335 2.18z"/><path class="st0" d="M83.314 159.918c-6.954 0-13.396-4.075-16.413-10.38-.55-1.168-.06-2.567 1.11-3.125 1.17-.558 2.57-.065 3.13 1.103 2.24 4.688 7.03 7.717 12.19 7.717 7.44 0 13.5-6.054 13.5-13.495v-32.73c0-1.294 1.05-2.343 2.34-2.343 1.3 0 2.35 1.05 2.35 2.343v32.73c0 10.024-8.15 18.18-18.18 18.18zM71.288 66.33c-1.294 0-2.343-1.05-2.343-2.344 0-7.776 6.326-14.103 14.103-14.103 1.294 0 2.343 1.05 2.343 2.343 0 1.294-1.04 2.343-2.34 2.343-5.19 0-9.41 4.22-9.41 9.41 0 1.29-1.05 2.34-2.34 2.34z"/><path class="st0" d="M89.552 120.89h-.074c-1.293-.04-2.31-1.122-2.27-2.415.13-4.147-2.416-7.842-6.333-9.195-1.223-.422-1.872-1.756-1.45-2.98.423-1.222 1.757-1.87 2.98-1.448 5.867 2.027 9.68 7.56 9.487 13.77-.04 1.266-1.08 2.268-2.34 2.268zm-10.804 20.268c-4.05 0-7.98-2.154-10.052-5.952-.62-1.136-.202-2.56.934-3.18 1.136-.62 2.56-.2 3.18.935 1.78 3.27 5.887 4.48 9.152 2.69 1.43-.78 2.53-2.05 3.094-3.58.45-1.21 1.796-1.83 3.01-1.38 1.214.45 1.834 1.8 1.385 3.01-.95 2.59-2.81 4.75-5.24 6.07-1.73.95-3.61 1.4-5.46 1.4z"/><path class="st0" d="M89.342 142.175c-1.294 0-2.343-1.05-2.343-2.343 0-5.308-3.6-9.896-8.75-11.157-1.26-.308-2.03-1.576-1.72-2.833.3-1.257 1.57-2.026 2.83-1.718 7.25 1.776 12.31 8.236 12.31 15.708 0 1.294-1.05 2.343-2.34 2.343zm-2.564-44.21c-.612 0-1.223-.238-1.683-.713-2.633-2.718-4.205-7.635-4.205-13.155 0-4.615 1.123-8.904 3.08-11.767.73-1.068 2.188-1.342 3.256-.61 1.068.73 1.342 2.187.61 3.255-1.416 2.072-2.26 5.482-2.26 9.122 0 5.106 1.553 8.52 2.884 9.895.9.93.877 2.412-.052 3.313-.455.44-1.043.66-1.63.66z"/><path class="st0" d="M83.07 85.78c-.023 0-.046 0-.068-.002-4.248-.12-7.594-4.135-7.458-8.95.036-1.293 1.116-2.314 2.408-2.276 1.293.036 2.312 1.114 2.276 2.408-.062 2.195 1.27 4.088 2.907 4.134 1.293.036 2.312 1.114 2.276 2.408-.03 1.27-1.07 2.277-2.34 2.277zm-14.434 21.727c-5.027 0-9.847-2.34-12.96-6.488-5.37-7.16-3.92-17.34 3.233-22.71 1.03-.78 2.5-.57 3.28.46.77 1.03.56 2.5-.47 3.28-5.09 3.82-6.12 11.06-2.3 16.15 2.79 3.71 7.5 5.39 12.01 4.27 1.25-.32 2.52.45 2.84 1.7.31 1.25-.46 2.52-1.71 2.84-1.31.32-2.63.48-3.93.48z"/><path class="st0" d="M57.775 99.96c-.198 0-.397-.005-.597-.016-1.292-.07-2.283-1.174-2.213-2.466.07-1.292 1.174-2.28 2.466-2.213 1.37.074 2.65-.288 3.62-1.017.85-.637 1.34-1.483 1.39-2.382.07-1.292 1.18-2.28 2.47-2.213 1.29.07 2.29 1.174 2.22 2.466-.12 2.3-1.28 4.39-3.25 5.87-1.7 1.28-3.84 1.96-6.08 1.96z"/><path class="st0" d="M83.315 162.892c-4.063 0-8.016-1.166-11.433-3.373-3.312-2.14-5.96-5.15-7.66-8.7-.828-.44-1.638-.9-2.42-1.41-6.375-4.09-11.092-10.32-13.28-17.56-1.822-6.03-1.804-12.5.015-18.49-1.006-1.07-1.95-2.2-2.82-3.38-5.488-7.48-7.735-16.65-6.328-25.82.83-5.46 2.88-10.49 6.08-14.95 2.48-3.47 5.66-6.5 9.25-8.86.84-12.98 11.66-23.27 24.84-23.27 13.73 0 24.89 11.16 24.89 24.89v79.73c0 11.666-9.49 21.156-21.16 21.156zm-12.297-14.815c1.118 2.152 2.78 3.978 4.83 5.3 2.232 1.443 4.814 2.205 7.467 2.205 7.634 0 13.845-6.21 13.845-13.845V62.005c0-9.697-7.89-17.587-17.587-17.587s-17.587 7.89-17.587 17.587c0 .125.003.25.005.374.03 1.33-.67 2.58-1.84 3.24-3.43 1.96-6.45 4.68-8.73 7.86-2.52 3.52-4.14 7.49-4.8 11.8-1.11 7.24.66 14.48 5 20.38 1.07 1.46 2.29 2.82 3.61 4.03 1.11 1.02 1.48 2.62.93 4.02-1.99 5.08-2.21 10.76-.62 16.01 1.69 5.57 5.32 10.37 10.23 13.52 1 .64 2.05 1.21 3.13 1.7 1.26.56 2.07 1.77 2.15 3.11z"/><path d="M101.05 30.327h-.028c-1.294-.014-2.33-1.075-2.316-2.37l.286-25.64c.014-1.294 1.08-2.33 2.37-2.316 1.293.02 2.33 1.08 2.315 2.37l-.286 25.64c-.01 1.29-1.06 2.32-2.34 2.32zm-24.68 4.068c-.968 0-1.873-.603-2.21-1.567L65.657 8.636c-.43-1.22.213-2.558 1.434-2.987 1.22-.43 2.56.21 2.99 1.43l8.5 24.19c.43 1.22-.21 2.56-1.43 2.98-.25.09-.52.13-.77.13zm-21.8 12.263c-.677 0-1.35-.292-1.812-.857L36.496 25.98c-.82-1-.675-2.476.326-3.297 1-.82 2.477-.675 3.297.326l16.26 19.82c.82 1 .67 2.47-.33 3.29-.44.35-.96.53-1.49.53zm-16.294 18.98c-.406 0-.817-.106-1.192-.327L15.022 52.25c-1.113-.66-1.48-2.096-.822-3.21.66-1.113 2.096-1.48 3.21-.822l22.063 13.07c1.113.66 1.48 2.097.822 3.21-.438.74-1.218 1.15-2.02 1.15zm-8.81 23.408c-.145 0-.29-.013-.436-.04L3.827 84.27c-1.272-.24-2.11-1.463-1.87-2.735.24-1.272 1.464-2.11 2.735-1.87L29.894 84.4c1.272.24 2.11 1.463 1.87 2.735-.21 1.125-1.195 1.91-2.3 1.91zm-25.588 29.18c-1.126 0-2.12-.813-2.31-1.96-.21-1.278.655-2.483 1.93-2.694l25.302-4.17c1.278-.21 2.482.654 2.693 1.93.21 1.278-.654 2.483-1.93 2.693l-25.302 4.17c-.12.02-.25.032-.38.032zm11.25 32c-.82 0-1.615-.43-2.045-1.193-.634-1.128-.234-2.556.893-3.19l22.35-12.573c1.127-.634 2.555-.235 3.19.893.633 1.128.233 2.556-.894 3.19l-22.35 12.573c-.362.204-.756.3-1.145.3zm21.507 26.224c-.54 0-1.083-.185-1.525-.564-.982-.843-1.095-2.322-.252-3.303l16.7-19.458c.844-.982 2.323-1.094 3.304-.252.982.843 1.095 2.322.252 3.303l-16.7 19.458c-.464.54-1.12.817-1.78.817zm29.183 17.288c-.274 0-.553-.05-.825-.15-1.21-.457-1.823-1.808-1.367-3.02l9.04-23.996c.455-1.21 1.806-1.823 3.017-1.367 1.21.456 1.823 1.807 1.367 3.018l-9.04 23.997c-.353.94-1.245 1.518-2.192 1.518zM99.154 200h-.027c-1.294-.014-2.33-1.075-2.316-2.37l.29-25.64c.02-1.294 1.08-2.33 2.37-2.316 1.3.014 2.33 1.075 2.32 2.37l-.28 25.64c-.01 1.284-1.06 2.316-2.34 2.316zm33.466-5.516c-.967 0-1.872-.603-2.21-1.567l-8.5-24.193c-.43-1.22.212-2.558 1.433-2.987 1.22-.43 2.558.213 2.987 1.434l8.5 24.2c.43 1.22-.212 2.56-1.433 2.99-.257.09-.52.14-.777.14zm29.563-16.63c-.677 0-1.35-.292-1.813-.857l-16.262-19.826c-.82-1-.675-2.47.326-3.29 1-.82 2.477-.67 3.297.33L164 174.03c.82 1 .675 2.476-.326 3.297-.435.352-.962.53-1.484.53zm22.087-25.737c-.406 0-.817-.106-1.192-.327l-22.063-13.07c-1.113-.658-1.48-2.095-.822-3.21.66-1.112 2.097-1.48 3.21-.82l22.062 13.068c1.113.66 1.48 2.096.822 3.21-.437.738-1.216 1.15-2.017 1.15zm11.96-31.742c-.142 0-.288-.013-.434-.04l-25.202-4.736c-1.272-.24-2.11-1.47-1.87-2.74.24-1.27 1.463-2.11 2.735-1.87l25.2 4.73c1.27.24 2.11 1.46 1.87 2.73-.21 1.12-1.2 1.91-2.3 1.91zM171.303 90.63c-1.126 0-2.12-.814-2.31-1.962-.21-1.277.655-2.482 1.932-2.693l25.3-4.17c1.277-.21 2.483.654 2.694 1.93.21 1.277-.66 2.482-1.94 2.693l-25.3 4.17c-.13.022-.26.032-.39.032zm-8.287-23.598c-.82 0-1.614-.43-2.044-1.194-.634-1.128-.234-2.556.893-3.19l22.35-12.573c1.127-.634 2.555-.234 3.19.893.633 1.128.233 2.556-.894 3.19L164.17 66.73c-.363.205-.758.302-1.147.302zm-15.866-19.34c-.54 0-1.082-.186-1.524-.565-.982-.843-1.094-2.322-.252-3.303l16.7-19.458c.844-.982 2.323-1.094 3.305-.252.98.843 1.09 2.322.25 3.303l-16.7 19.458c-.47.54-1.12.817-1.78.817zm-21.52-12.746c-.274 0-.552-.05-.824-.15-1.21-.457-1.823-1.808-1.366-3.02l9.04-23.996c.455-1.21 1.807-1.823 3.017-1.367 1.21.456 1.823 1.807 1.366 3.018l-9.04 24c-.353.94-1.245 1.52-2.192 1.52z"/></svg>