<svg id="Layer_1" xmlns="http://www.w3.org/2000/svg" viewBox="0 0 100 100"><style>.st0{fill:#FDFEFE;} .st1{fill:#FFFFFF;} .st2{fill:none;stroke:#78787A;stroke-width:0.8967;stroke-miterlimit:10;}</style><path class="st0" d="M50 99.78C22.43 99.78 0 77.447 0 50S22.43.22 50 .22 100 22.553 100 50 77.57 99.78 50 99.78zm0-94.662C25.13 5.118 4.895 25.252 4.895 50S25.13 94.883 50 94.883 95.102 74.748 95.102 50 74.87 5.118 50 5.118z"/><path class="st1" d="M2.07 48.87h20.49v2.194H2.07zm75.743 0h19.483v2.194H77.813z"/><path class="st1" d="M50.315 78.296c-15.536 0-28.175-12.64-28.175-28.175s12.64-28.17 28.175-28.17S78.49 34.59 78.49 50.12 65.85 78.296 50.314 78.296zm0-54.155c-14.325 0-25.98 11.66-25.98 25.98S35.99 76.1 50.315 76.1c14.323 0 25.98-11.655 25.98-25.98s-11.657-25.98-25.98-25.98z"/><path class="st1" d="M50.133 12.732S45.97 24.465 43.45 29.254c-3.713 7.054-9.84 13.737-8.354 24.69 1.434 10.576 9.652 13.803 15.408 13.923 8.91.186 15.46-8.17 15.594-16.15.186-11.14-5.012-15.78-9.096-22.835s-6.87-16.15-6.87-16.15z"/><path class="st1" d="M50.787 69.052c-.103 0-.204 0-.307-.004-6.72-.14-15.09-4.137-16.553-14.945-1.237-9.113 2.61-15.49 6.004-21.115.87-1.44 1.73-2.855 2.48-4.284 2.45-4.66 6.58-16.25 6.62-16.367l1.2-3.37 1.05 3.42c.03.09 2.8 9.053 6.76 15.904.88 1.53 1.82 2.93 2.74 4.32 3.43 5.18 6.68 10.06 6.52 19.13-.07 4.67-2.2 9.46-5.68 12.81-3.02 2.92-6.85 4.51-10.81 4.51zM50.09 16.31c-1.426 3.85-3.865 10.207-5.593 13.493-.775 1.47-1.65 2.925-2.544 4.405-3.347 5.55-6.81 11.29-5.686 19.577 1.63 12.03 12.167 12.858 14.263 12.9 4.41.1 7.56-2.04 9.432-3.844 3.035-2.92 4.887-7.08 4.956-11.14.14-8.33-2.906-12.92-6.128-17.78-.946-1.42-1.904-2.87-2.81-4.44-2.63-4.54-4.71-9.84-5.89-13.16zM12.584 43.694l-.018-.005c-1.77-.47-2.85-2.25-2.34-4.17.507-1.92 2.304-2.92 4.073-2.46h.01c1.77.47 2.85 2.25 2.34 4.17-.51 1.92-2.31 2.92-4.08 2.45zm1.373-5.184l-.018-.005c-1.07-.283-2.17.264-2.46 1.366-.29 1.11.38 2.1 1.44 2.38l.02.01c1.07.29 2.16-.26 2.45-1.36.29-1.1-.38-2.09-1.45-2.38zm-1.897-4.33l.7-1.353 3.188-.25-1.633-2.747.7-1.352 5.702 2.955-.647 1.246-3.72-1.93 1.602 2.86-.017.03-3.235.34 3.698 1.91-.637 1.23-5.7-2.96zm4.306-7.67l2.998-3.807.987.778-2.12 2.71 1.03.81 1.88-2.38.99.78-1.87 2.38 1.06.84 2.158-2.74.99.78-3.026 3.85-5.047-3.97zm6.388-2.768l-.012-.014c-1.205-1.375-1.12-3.44.345-4.723.87-.76 1.602-.987 2.48-1l.04 1.395c-.647.016-1.135.127-1.695.617-.775.678-.79 1.9-.07 2.723l.01.013c.776.885 1.953 1.002 2.81.25.387-.337.648-.737.747-1.166l-.61-.692-1.07.938-.81-.92 2.1-1.84 1.84 2.103c-.13.857-.51 1.802-1.4 2.576-1.51 1.32-3.47 1.17-4.72-.26zm6.176-8.898l1.13-.653 5.627 4.24-1.282.74-1.23-.95-2.356 1.36.21 1.54-1.25.73-.85-6.99zm3.182 2.534l-1.784-1.38.304 2.234 1.48-.854zm2.28-2.07l2.624-1.06.5 1.243-2.622 1.06-.502-1.24zm4.078 1.022l.704-1.145c.553.367 1.07.515 1.7.35.515-.138.802-.528.68-.99l-.005-.018c-.14-.507-.67-.672-1.43-.47l-.57.15-.45-.813 1.09-1.886-2.45.647-.31-1.174 4.2-1.11.27 1.03-1.18 1.92c.88-.08 1.822.15 2.13 1.3l.002.02c.31 1.18-.316 2.26-1.7 2.63-1.12.3-2.015.06-2.716-.43zm25.267-4.955l2.424 1.015c1.42.593 1.93 1.79 1.42 3.003v.017c-.57 1.374-1.94 1.64-3.27 1.082l-.99-.415-.74 1.78-1.3-.547 2.49-5.935zm1.088 3.972c.653.274 1.198.043 1.41-.466l.008-.01c.244-.58-.03-1.07-.684-1.34l-1.01-.42-.76 1.82 1.03.43zm3.75 2.23l2.06-3.048 1.174.79-2.05 3.02c-.59.87-.46 1.61.26 2.09.71.48 1.44.34 2.02-.5l2.07-3.06 1.17.79-2.04 3.01c-1.1 1.61-2.54 1.79-3.97.82-1.43-.97-1.77-2.37-.71-3.94zm8.9 1.983l2.056 2.092c.58.582.86 1.193.85 1.79 0 .506-.23.997-.66 1.42l-.01.013c-.74.726-1.59.783-2.38.414l-.53 2.72-1.15-1.18.5-2.42-.77-.79-1.462 1.44-.99-1.01 4.57-4.5zm-.23 4.212c.482.49 1.02.514 1.405.135l.014-.013c.43-.424.356-.943-.124-1.433l-.983-1-1.315 1.3 1.002 1.02zm5.553 1.66l.834 1.145-5.205 3.792-.834-1.15 5.205-3.79zm1.965 5.45l-.916-1.726 1.153-.61 2.49 4.702-1.15.61-.914-1.726-4.524 2.397-.662-1.25 4.523-2.4zm.492 7.524l2.99-3.518.49 1.58-2.012 2.233 2.93.73.477 1.54-4.428-1.21-2.45.76-.42-1.35 2.423-.75zm-73.158 16.94l.018-.002c1.792-.35 3.522.715 3.9 2.65.232 1.187-.025 1.976-.488 2.674l-1.19-.684c.348-.574.52-1.12.398-1.75-.207-1.064-1.238-1.657-2.32-1.446l-.017.005c-1.08.21-1.835 1.133-1.623 2.214.14.72.514 1.105 1.06 1.51l-.718 1.058c-.82-.512-1.393-1.148-1.63-2.365-.363-1.854.8-3.51 2.61-3.864zm4.735 6.374l.518 1.317-4.79 1.884 1.173 2.99-1.198.47-1.692-4.3 5.99-2.35zm2.366 5.472l.684 1.236-5.622 3.113-.685-1.23 5.623-3.11zm1.53 2.803l.8 1.028-1.273 4.81L23.38 73.4l.856 1.103-5.073 3.947-.74-.95 1.314-4.967-3.224 2.51-.858-1.1 5.072-3.948zm4.815 5.735l1.024.973-4.42 4.655-1.024-.973 4.42-4.655zm.247 4.7l.01-.013c1.048-1.494 3.033-1.93 4.648-.796.99.7 1.352 1.45 1.504 2.27l-1.332.33c-.147-.65-.402-1.16-.928-1.53-.886-.62-2.04-.33-2.673.57l-.02.02c-.63.9-.54 2.09.36 2.72.6.43 1.13.44 1.81.36l.21 1.26c-.95.2-1.8.14-2.82-.57-1.548-1.083-1.86-3.085-.8-4.593zm9.83 2.167l1.2.514-.022 7.04-1.36-.58.03-1.55-2.5-1.07-1.11 1.1-1.325-.57 5.087-4.87zm-.124 4.064l.037-2.25-1.608 1.58 1.57.68zm4.93-2.17l1.38.31-1.107 5.02 3.12.69-.28 1.26-4.51-.99 1.38-6.28zm8.526 6.83l.8-1.03c.597.46 1.214.74 1.95.71.58-.02.918-.26.906-.64l-.002-.02c-.012-.36-.24-.53-1.325-.77-1.3-.28-2.15-.61-2.2-1.89v-.02c-.04-1.16.87-1.97 2.18-2.02.94-.03 1.75.23 2.42.73l-.69 1.09c-.58-.37-1.15-.59-1.69-.57-.54.02-.82.28-.8.59v.02c.02.43.3.55 1.42.8 1.32.29 2.07.74 2.11 1.86v.02c.05 1.28-.9 2.03-2.29 2.08-.97.037-1.97-.27-2.76-.93zm7.816-4.88l-1.917.4-.26-1.27 5.22-1.08.27 1.28-1.91.4 1.05 5.02-1.38.29-1.042-5.024zm4.184-2.33l2.714-1.12c.753-.31 1.427-.34 1.98-.11.466.2.84.59 1.07 1.15l.006.018c.397.96.13 1.78-.51 2.37l2.33 1.52-1.528.63-2.06-1.37-1.025.427.78 1.9-1.31.54-2.46-5.935zm3.823 1.8c.636-.26.858-.75.653-1.25l-.007-.015c-.23-.56-.74-.686-1.37-.423l-1.3.54.71 1.704 1.33-.55zm2.36-4.54l4.043-2.66.69 1.05L69 81.627l.715 1.09 2.527-1.67.69 1.05-2.526 1.66.74 1.13 2.91-1.91.692 1.05-4.08 2.686-3.53-5.37zm5.18-3.546l.933-.91 4.928.723-2.77-2.836.998-.976 4.496 4.6-.86.84-5.082-.745 2.86 2.925-1 .974-4.496-4.604zm7.665-3.236l-.013-.01c-1.525-1.01-1.987-3.024-.91-4.65.642-.966 1.287-1.375 2.134-1.62l.41 1.338c-.62.19-1.06.42-1.47 1.04-.57.86-.26 2.05.65 2.65l.02.01c.98.65 2.15.458 2.78-.493.29-.43.44-.88.42-1.32l-.76-.51-.79 1.19-1.013-.68 1.543-2.33 2.33 1.54c.1.864-.02 1.875-.67 2.856-1.11 1.664-3.043 2.04-4.63.99zm3.057-9.02l-.756 1.808-1.2-.5 2.06-4.914 1.2.507-.75 1.806 4.73 1.983-.54 1.3-4.73-1.98zm.466-4.75l.287-1.387 2.494.515.53-2.56-2.493-.52.29-1.38 6.3 1.306-.28 1.39-2.53-.53-.53 2.558 2.53.528-.29 1.39-6.3-1.31z"/></svg>