<svg xmlns="http://www.w3.org/2000/svg" viewBox="0 0 430 70"><path fill="#FFBC00" d="M46.55 23.114L36.2-.424 25.86 23.114 0 25.876l.002.003L0 25.87h.003l19.464 16.91-5.64 25.653L36.202 54.94 58.58 68.434l-5.633-25.652 19.47-16.903.002-.01h-.01zm89.397 0L125.597-.424l-10.342 23.538-25.86 2.762.003.003-.002-.01h.003l19.46 16.9-5.64 25.65 22.38-13.49 22.37 13.492-5.64-25.65 19.47-16.905.004-.006h-.003.005zm89.396 0L214.99-.424l-10.34 23.538-25.86 2.762.004.003-.003-.01h.01l19.46 16.9-5.64 25.65L215 54.932l22.375 13.49v-.002.005l-5.63-25.65 19.47-16.9.002-.005.004-.01zm89.395 0L304.388-.424l-10.343 23.538-25.858 2.762.003.003-.003-.01h.003l19.462 16.9-5.638 25.65 22.376-13.49 22.374 13.49v-.004l.002.003-.003-.005-5.63-25.65 19.467-16.9h.004-.003l.01-.005zM430 25.876l-25.866-2.762-10.35-23.538-10.343 23.538-25.85 2.762.01.003v-.01h.003l19.46 16.9-5.64 25.65 22.37-13.496 22.375 13.492-.002-.005h.01v-.003l-5.63-25.65L430 25.88v-.002z"/></svg>