<svg viewBox="0 0 100 100" xmlns="http://www.w3.org/2000/svg"><path d="M88.027 4.716L46.885 58.57l-13.8-10.545-9.097 11.32 25.62 19.57L99.56 13.527z" fill="#fff"/><path d="M87.71 35.163c1.68 4.488 2.605 9.34 2.605 14.407 0 22.73-18.492 41.222-41.222 41.222S7.87 72.3 7.87 49.57 26.36 8.348 49.093 8.348c9.397 0 18.063 3.167 25.006 8.48l4.51-5.902C70.41 4.656 60.18.916 49.09.916 22.262.916.438 22.743.438 49.57c0 26.828 21.825 48.654 48.654 48.654 26.828 0 48.654-21.826 48.654-48.654 0-7.588-1.75-14.776-4.86-21.182z" fill="#fff"/></svg>