<svg xmlns="http://www.w3.org/2000/svg" viewBox="0 0 100 100"><g opacity=".5"><path d="M89.6 53.712l1.742-1.494-.17-.21c-.31-.378-.584-.805-.818-1.268l-.16-.316-2.188 1.875-13.797-8.14-13.92 8.21-12.88-7.6V27.85l-15.39-9.077-7.55 4.546 1.04 1.84 6.51-3.933 13.296 7.843v15.7L32.02 52.62l-6.645-3.918-1.04 1.843 6.64 3.915v15.698L17.68 78l-8.047-4.746-.13.28c-.21.458-.467.89-.766 1.288l-.188.25 9.13 5.385 14.34-8.46 7.985 4.71.125-.29c.195-.45.445-.89.74-1.303l.18-.247-7.985-4.71V54.46l13.3-7.843 13.3 7.843v15.698l-7.987 4.71.176.246c.3.414.55.853.743 1.303l.125.29 7.56-4.458 13.92 8.2 13.865-8.18 2.18 1.626.153-.29c.227-.434.51-.853.836-1.243l.19-.226-1.83-1.363V53.71zm-15.39-7.095l13.298 7.843v15.698L74.208 78 61.76 70.66V53.957l12.45-7.34zM11.32 47.91l-9.03 5.33v10.45l.31-.034c.484-.054.988-.054 1.473 0l.31.034v-9.23l7.985-4.71-.177-.246c-.3-.417-.55-.855-.74-1.303l-.12-.29z" fill="#068FBD"/><path d="M4.38 66.32l-.224-.046c-.57-.113-1.074-.114-1.643 0l-.224.045v5.06l4.02 2.37.15-.17c.38-.41.67-.89.87-1.418l.083-.22-3.04-1.79v-3.84z" fill="#92B4D7"/><path fill="#068FBD" d="M30.04 56.717l-8.502-5.09-1.047 1.84L29 58.555m5.01 10.575l7.725 4.6 1.06-1.83-7.736-4.608m49.58-12.456l-10.91-6.168-1.01 1.86 10.904 6.17m.857 12.656l-1.097-1.808-10.7 6.784 1.097 1.806M63.19 55.94h2.288v12.937H63.19z"/><path d="M93.315 73.858c-.387.41-.687.884-.892 1.407l-.078.198 1.658 1.236 1.23-1.72-1.748-1.31-.17.18zM92.26 48.653l.052.173c.165.553.432 1.06.79 1.505l.18.23 2.28-1.952-1.34-1.63-1.962 1.684z" fill="#92B4D7"/></g><g fill="#BDE3F0"><ellipse cx="19.52" cy="27.458" rx="4.824" ry="4.916"/><ellipse cx="17.68" cy="46.28" rx="4.824" ry="4.916"/><ellipse cx="46.136" cy="76.306" rx="4.824" ry="4.916"/><ellipse cx="95.176" cy="75.749" rx="4.824" ry="4.916"/><ellipse cx="95.176" cy="49.049" rx="4.824" ry="4.916"/><ellipse cx="4.824" cy="69.933" rx="4.824" ry="4.916"/></g></svg>