<svg id="Layer_1" xmlns="http://www.w3.org/2000/svg" viewBox="0 0 200 200"><style>.st0{fill:#055E82;}</style><path d="M120.222 200c-1.76 0-3.3-1.28-3.56-3.057l-4.933-33.703c-.17-1.104.2-2.22.99-3.016.79-.795 1.91-1.18 3.02-1.037l19.2 2.445c5.95-.057 11.556-2.4 15.805-6.61 4.3-4.265 6.67-9.906 6.67-15.887V110.43c0-1.97 1.612-3.57 3.6-3.57h12.336c-8.653-25.566-20.807-60.87-22.645-64.515-5.24-10.393-13.25-19.18-23.174-25.416-10.193-6.41-21.95-9.79-34.003-9.79-10.016 0-19.62 2.26-28.55 6.71-12.15 6.07-21.78 15.8-27.83 28.11-2.938 5.98-4.91 12.37-5.86 18.98-.97 6.736-.855 13.55.336 20.26l7.334 34.88c.047.235.07.47.074.707l.55 79.61c.015 1.97-1.587 3.58-3.575 3.592-1.983.01-3.61-1.58-3.623-3.55l-.546-79.257L24.57 82.6l-.02-.107c-1.33-7.47-1.46-15.06-.383-22.56 1.057-7.35 3.25-14.45 6.515-21.1 3.29-6.69 7.58-12.758 12.76-18.036 5.33-5.436 11.5-9.92 18.328-13.33C71.7 2.52 82.39 0 93.55 0c13.42 0 26.51 3.77 37.856 10.9 11.03 6.93 19.938 16.7 25.763 28.254 2.81 5.572 22.392 63.55 24.62 70.144.363 1.09.18 2.286-.497 3.217-.677.93-1.764 1.484-2.922 1.484h-13.737v25.13c0 16.34-13.413 29.63-29.9 29.63-.153 0-.307-.01-.46-.03l-14.738-1.88 4.252 29.05c.283 1.95-1.08 3.76-3.05 4.044-.175.025-.35.037-.52.037z"/><path d="M134.735 168.772c-.153 0-.307-.01-.46-.03l-52.35-6.663c-1.974-.26-3.367-2.04-3.114-4 .26-1.96 2.06-3.34 4.03-3.09l52.12 6.63c5.95-.06 11.56-2.4 15.81-6.61 4.3-4.27 6.67-9.91 6.67-15.89v-28.7c0-1.97 1.62-3.57 3.6-3.57h12.34c-8.65-25.57-20.8-60.87-22.64-64.52-5.24-10.39-13.253-19.18-23.175-25.416-10.193-6.41-21.95-9.79-34.003-9.79-10.02 0-19.627 2.26-28.55 6.72-12.166 6.07-21.79 15.79-27.84 28.11-2.94 5.98-4.91 12.37-5.86 18.983-.97 6.75-.857 13.582.344 20.31.346 1.94-.96 3.792-2.92 4.135-1.957.342-3.826-.95-4.172-2.895-1.33-7.47-1.46-15.06-.382-22.56 1.057-7.35 3.25-14.45 6.515-21.1 3.284-6.686 7.574-12.753 12.75-18.033 5.332-5.434 11.496-9.92 18.322-13.33C71.696 2.52 82.394 0 93.546 0c13.42 0 26.513 3.77 37.86 10.9 11.03 6.93 19.938 16.7 25.763 28.254 2.81 5.572 22.396 63.55 24.62 70.144.367 1.09.184 2.286-.493 3.217-.677.932-1.764 1.484-2.922 1.484h-13.738v25.13c0 16.34-13.413 29.63-29.9 29.63z"/><path class="st0" d="M97.12 31.205c-2.268 0-4.113-1.83-4.113-4.076 0-2.25 1.845-4.08 4.113-4.08 2.268 0 4.113 1.83 4.113 4.07s-1.846 4.07-4.113 4.07zm0-4.576c-.278 0-.504.22-.504.49s.226.5.504.5.504-.23.504-.5-.227-.5-.504-.5zm2.46 40.57c-2.268 0-4.113-1.83-4.113-4.08s1.845-4.08 4.113-4.08c2.268 0 4.113 1.83 4.113 4.07 0 2.246-1.845 4.075-4.113 4.075zm0-4.58c-.278 0-.504.22-.504.5 0 .27.226.49.504.49s.504-.226.504-.5-.226-.5-.504-.5zm9.284-30.08c-2.268 0-4.113-1.83-4.113-4.078s1.85-4.076 4.12-4.076 4.12 1.83 4.12 4.075c0 2.25-1.84 4.078-4.11 4.078zm0-4.577c-.278 0-.504.223-.504.5s.226.497.504.497.504-.222.504-.497-.226-.5-.504-.5zm18.372 11.13c-2.268 0-4.113-1.83-4.113-4.078s1.845-4.078 4.113-4.078c2.268 0 4.113 1.83 4.113 4.075 0 2.246-1.85 4.075-4.12 4.075zm0-4.578c-.278 0-.504.222-.504.5 0 .272.226.496.504.496s.504-.22.504-.495-.226-.5-.504-.5zM52.444 72.14c-2.268 0-4.113-1.83-4.113-4.076 0-2.248 1.85-4.076 4.12-4.076s4.12 1.83 4.12 4.076c0 2.248-1.84 4.076-4.11 4.076zm0-4.575c-.278 0-.504.224-.504.5 0 .274.226.498.504.498s.504-.224.504-.5c0-.274-.226-.498-.504-.498zm9.592-29.31c-2.268 0-4.113-1.83-4.113-4.075s1.845-4.076 4.113-4.076 4.113 1.83 4.113 4.076-1.85 4.076-4.12 4.076zm0-4.575c-.278 0-.504.224-.504.5 0 .274.226.498.504.498s.504-.224.504-.5c0-.274-.227-.498-.504-.498z"/><path class="st0" d="M43.032 86.514c-1.275 0-2.308-1.024-2.308-2.288V65.35c0-.606.243-1.187.675-1.616l18.32-18.2V35.97c0-1.266 1.03-2.29 2.31-2.29s2.31 1.024 2.31 2.29v10.51c0 .605-.25 1.186-.68 1.615l-18.33 18.2v17.93c0 1.264-1.04 2.288-2.31 2.288z"/><path class="st0" d="M43.013 54.043c-.59 0-1.18-.223-1.632-.67-.9-.893-.9-2.342 0-3.236l13.47-13.345c.91-.894 2.37-.894 3.27 0 .9.893.9 2.342 0 3.236L44.65 53.373c-.45.446-1.04.67-1.633.67zM71.16 35.736c-2.267 0-4.112-1.83-4.112-4.076 0-2.248 1.845-4.076 4.113-4.076 2.27 0 4.12 1.83 4.12 4.076 0 2.247-1.84 4.076-4.11 4.076zm0-4.576c-.277 0-.503.224-.503.5 0 .274.226.498.504.498.28 0 .51-.224.51-.5 0-.274-.22-.498-.5-.498z"/><path class="st0" d="M53.953 69.01c-.573 0-1.148-.21-1.595-.634-.92-.873-.954-2.322-.073-3.235l16.568-17.17V33.45c0-1.264 1.034-2.288 2.308-2.288 1.28 0 2.31 1.024 2.31 2.288v15.44c0 .59-.23 1.156-.64 1.58L55.62 68.304c-.452.47-1.06.707-1.667.707zm7.822 11.203H51.51c-1.275 0-2.308-1.024-2.308-2.288 0-1.264 1.034-2.288 2.308-2.288h7.956v-7.78c0-1.265 1.034-2.29 2.308-2.29 1.275 0 2.308 1.025 2.308 2.29v10.068c0 1.264-1.032 2.288-2.307 2.288z"/><path class="st0" d="M61.688 88.857H51.51c-1.275 0-2.308-1.024-2.308-2.288 0-1.27 1.034-2.29 2.308-2.29h9.244l8.098-7.76V59.87c0-1.264 1.034-2.288 2.308-2.288 1.275 0 2.308 1.023 2.308 2.287v17.61c0 .62-.254 1.21-.704 1.64L63.29 88.2c-.42.413-1 .644-1.6.644z"/><path class="st0" d="M72.767 96.522H46.03c-1.275 0-2.308-1.024-2.308-2.288 0-1.264 1.034-2.288 2.308-2.288h25.78l6.053-6v-57.11c0-1.265 1.034-2.29 2.308-2.29 1.28 0 2.31 1.025 2.31 2.29v58.058c0 .607-.24 1.19-.67 1.618l-7.4 7.34c-.43.43-1.02.67-1.63.67z"/><path class="st0" d="M81.068 132.904c-1.275 0-2.308-1.024-2.308-2.288V104.71c0-.616.25-1.205.692-1.635l7.91-7.686V27.21c0-1.264 1.034-2.288 2.31-2.288 1.274 0 2.307 1.023 2.307 2.287v69.14c0 .61-.25 1.2-.7 1.63l-7.91 7.68v24.95c0 1.263-1.04 2.29-2.31 2.29zM99.32 97.826c-1.276 0-2.31-1.024-2.31-2.288V74.824c0-.61.246-1.193.68-1.622l9.024-8.896V39.3l-9.74-8.882c-.938-.855-1-2.303-.136-3.233.863-.93 2.323-.99 3.262-.135l10.485 9.56c.475.433.746 1.044.746 1.684v26.963c0 .61-.24 1.193-.68 1.622l-9.02 8.89v19.76c0 1.26-1.03 2.28-2.31 2.28zM73.754 132.89c-1.275 0-2.308-1.024-2.308-2.288v-29.03c0-1.264 1.034-2.288 2.308-2.288 1.275 0 2.308 1.024 2.308 2.288v29.03c0 1.264-1.033 2.288-2.308 2.288z"/><path class="st0" d="M99.58 63.63c-1.275 0-2.308-1.025-2.308-2.29V38.465c0-1.264 1.034-2.288 2.308-2.288 1.275 0 2.308 1.024 2.308 2.288V61.34c0 1.265-1.033 2.29-2.308 2.29zm9.125 31.997c-1.275 0-2.308-1.024-2.308-2.288V78.35c0-.606.243-1.188.676-1.617l8.71-8.633V30.543c0-1.264 1.034-2.288 2.308-2.288 1.28 0 2.31 1.024 2.31 2.288v38.505c0 .607-.24 1.19-.67 1.618l-8.71 8.633v14.04c0 1.26-1.03 2.28-2.31 2.28z"/><path class="st0" d="M114.18 87.1c-.58 0-1.158-.215-1.607-.647-.915-.88-.937-2.328-.05-3.235l4.823-4.93c.435-.443 1.033-.694 1.657-.694h13.514l11.657-11.56V51.667c0-1.264 1.033-2.288 2.308-2.288s2.308 1.02 2.308 2.28v15.32c0 .6-.243 1.18-.676 1.61L135.106 81.5c-.433.428-1.02.67-1.633.67H119.98l-4.143 4.234c-.452.463-1.054.695-1.657.695z"/><path class="st0" d="M120.98 75.65c-.59 0-1.18-.224-1.63-.67-.902-.894-.902-2.343 0-3.237l5.578-5.53V36.82c0-1.263 1.033-2.287 2.308-2.287s2.308 1.024 2.308 2.288v30.34c0 .61-.243 1.19-.676 1.62l-6.255 6.2c-.45.45-1.04.67-1.632.67zm16.15-6.2c-1.274 0-2.307-1.025-2.307-2.29V43.35c0-1.264 1.034-2.288 2.308-2.288 1.28 0 2.31 1.024 2.31 2.288v23.81c0 1.265-1.03 2.29-2.31 2.29z"/></svg>