<svg viewBox="0 0 190 220" xmlns="http://www.w3.org/2000/svg"><g fill="#055e82"><path d="M95 219.392l-95-54.85V54.847L95 0l95 54.848V164.54zM4.827 161.754L95 213.818l90.173-52.065V57.635L95 5.575 4.827 57.635z"/><path d="M95.117 180.296c-.263 0-.525-.043-.777-.128-27.12-9.217-41.506-25.992-48.8-38.442-4.276-7.298-6.535-15.77-6.535-24.5v-56.08c0-1.247.95-2.288 2.19-2.404.278-.026 28.06-2.78 52.633-18.315.788-.498 1.79-.498 2.58 0 24.573 15.535 52.354 18.29 52.632 18.315 1.24.116 2.19 1.157 2.19 2.403v56.08c0 8.73-2.26 17.203-6.535 24.5-7.294 12.45-21.68 29.226-48.8 38.443-.253.085-.515.128-.778.128zM43.832 63.29v53.935c0 7.874 2.03 15.502 5.874 22.06 6.81 11.624 20.202 27.254 45.412 36.045 25.21-8.79 38.603-24.42 45.412-36.044 3.843-6.56 5.874-14.187 5.874-22.06V63.29c-7.08-.94-29.853-4.843-51.285-17.98-21.44 13.138-44.21 17.04-51.29 17.98z"/><path d="M95.117 169.412c-.173 0-.347-.03-.512-.093-22.238-8.41-34.12-22.48-40.175-32.81-3.35-5.73-5.122-12.4-5.122-19.29V69.18c0-.698.497-1.296 1.183-1.424 9.01-1.676 26.69-5.94 43.92-15.674.44-.25.98-.25 1.43 0 17.227 9.734 34.908 13.998 43.915 15.674.686.128 1.183.726 1.183 1.424v48.044c0 6.896-1.77 13.57-5.123 19.3-6.057 10.323-17.94 24.392-40.175 32.794-.168.063-.34.094-.515.094zM52.205 70.378v46.846c0 6.384 1.634 12.55 4.724 17.828 5.77 9.843 17.07 23.237 38.18 31.36 21.12-8.122 32.42-21.512 38.19-31.352 3.09-5.288 4.72-11.456 4.72-17.84V70.38c-9.358-1.826-26.277-6.122-42.913-15.375C78.477 64.26 61.56 68.555 52.2 70.38z"/><path d="M88.113 128.932c-.618 0-1.236-.236-1.706-.707L67.73 109.547c-.944-.942-.944-2.47 0-3.413.94-.943 2.47-.943 3.412 0l16.972 16.97 40.32-40.317c.94-.943 2.47-.943 3.412 0 .943.942.943 2.47 0 3.413L89.82 128.225c-.47.47-1.09.707-1.707.707z"/></g><circle cx="139.477" cy="134.031" fill="#fff" r="18.672"/><path d="M139.477 154.15c-11.094 0-20.12-9.025-20.12-20.12s9.026-20.12 20.12-20.12 20.12 9.027 20.12 20.12-9.025 20.12-20.12 20.12zm0-37.343c-9.498 0-17.224 7.727-17.224 17.224s7.727 17.23 17.224 17.23c9.498 0 17.224-7.72 17.224-17.22s-7.72-17.22-17.22-17.22z" fill="#055e82"/><path d="M137.97 121.875h2.598v24.943h-2.598z" fill="#055e82"/><path d="M126.797 133.047h24.943v2.598h-24.943z" fill="#055e82"/></svg>