<svg viewBox="0 0 190 220" xmlns="http://www.w3.org/2000/svg"><g fill="#055e82"><path d="M95 219.392l-95-54.85V54.847L95 0l95 54.848V164.54zM4.827 161.754L95 213.82l90.173-52.066V57.634L95 5.574 4.827 57.634z"/><path d="M122.403 139.175H64.835c-1.34 0-2.424 1.085-2.424 2.424s1.09 2.42 2.43 2.42h57.57c1.34 0 2.43-1.09 2.43-2.43s-1.08-2.43-2.42-2.43zm-33.905-62.6c1.106.427 5.583 1.905 9.274-.542 2.084-1.38 3.397-3.662 3.924-6.802 3.755 1.71 10.25 5.6 13.122 12.9h5.115c-.018-.09-.027-.17-.055-.26-4.488-14.01-19.073-18.21-19.69-18.39-.734-.2-1.514-.05-2.118.41-.603.46-.958 1.17-.958 1.93 0 2.21-.348 5.07-2.004 6.18-1.572 1.05-4.097.39-4.926.05-.118-.05-.24-.09-.365-.12-12.867-3.18-20.335 5.2-22.48 10.08-.02.046-.027.09-.043.13h5.538c1.943-2.82 6.712-7.683 15.666-5.55zm40.2 15.88c-.718 0-1.418.06-2.103.163v-4.095c0-1.338-1.085-2.424-2.424-2.424H63.65c-1.34 0-2.424 1.08-2.424 2.42v18.16c0 15.68 13.513 28.44 30.123 28.44h5.11c10.71 0 20.12-5.31 25.47-13.28 7.65-1.3 19.46-9.08 20.1-16.91.57-6.88-5.98-12.49-13.33-12.49zm-6.966 14.236c0 13.02-11.338 23.6-25.275 23.6h-5.115c-13.937 0-25.275-10.58-25.275-23.6V90.95h.032v-.082h55.61v.082h.03zm15.467-2.14c-.33 3.92-6.69 9.08-12.27 11.41 1.06-2.9 1.65-6.02 1.65-9.26l.01-9.14c.67-.15 1.37-.25 2.1-.25 2.63 0 5.2 1.09 6.86 2.9.83.91 1.8 2.4 1.63 4.36z"/><path d="M136.38 162.325H53.855c-7.154 0-12.975-5.82-12.975-12.975V66.825c0-7.154 5.82-12.975 12.975-12.975h82.524c7.15 0 12.97 5.82 12.97 12.975v82.524c0 7.15-5.82 12.97-12.98 12.97zM53.855 56.63c-5.62 0-10.195 4.574-10.195 10.196v82.524c0 5.62 4.573 10.195 10.195 10.195h82.524c5.62 0 10.19-4.573 10.19-10.195V66.825c0-5.62-4.58-10.195-10.2-10.195H53.85z"/><path d="M51.992 144.48l82.08-82.08 1.967 1.966-82.09 82.08z"/></g></svg>