<svg id="Layer_1" xmlns="http://www.w3.org/2000/svg" viewBox="0 0 100 100"><style>.st0{fill:#FDFEFE;} .st1{fill:#FFFFFF;} .st2{fill:none;stroke:#78787A;stroke-width:0.8967;stroke-miterlimit:10;}</style><path class="st0" d="M50 99.78C22.43 99.78 0 77.447 0 50S22.43.22 50 .22 100 22.553 100 50 77.57 99.78 50 99.78zm0-94.662C25.13 5.118 4.895 25.252 4.895 50S25.13 94.883 50 94.883 95.102 74.748 95.102 50 74.87 5.118 50 5.118z"/><path class="st1" d="M2.07 48.87h20.49v2.194H2.07zm75.743 0h19.483v2.194H77.813z"/><path class="st1" d="M50.315 78.296c-15.536 0-28.175-12.64-28.175-28.175s12.64-28.17 28.175-28.17S78.49 34.59 78.49 50.12 65.85 78.296 50.314 78.296zm0-54.155c-14.325 0-25.98 11.66-25.98 25.98S35.99 76.1 50.315 76.1c14.323 0 25.98-11.655 25.98-25.98s-11.657-25.98-25.98-25.98z"/><path class="st1" d="M50.133 12.732S45.97 24.465 43.45 29.254c-3.713 7.054-9.84 13.737-8.354 24.69 1.434 10.576 9.652 13.803 15.408 13.923 8.91.186 15.46-8.17 15.594-16.15.186-11.14-5.012-15.78-9.096-22.835s-6.87-16.15-6.87-16.15z"/><path class="st1" d="M50.787 69.052c-.103 0-.204 0-.307-.004-6.72-.14-15.09-4.137-16.553-14.945-1.237-9.113 2.61-15.49 6.004-21.115.87-1.44 1.73-2.855 2.48-4.284 2.45-4.66 6.58-16.25 6.62-16.367l1.196-3.37 1.047 3.42c.027.09 2.796 9.053 6.76 15.904.88 1.53 1.817 2.93 2.736 4.32 3.43 5.18 6.672 10.06 6.52 19.13-.078 4.67-2.2 9.46-5.68 12.81-3.024 2.917-6.853 4.51-10.813 4.51zM50.09 16.31c-1.426 3.85-3.865 10.207-5.593 13.493-.775 1.47-1.65 2.925-2.544 4.405-3.347 5.55-6.81 11.29-5.686 19.577 1.63 12.03 12.167 12.858 14.263 12.9 4.41.1 7.56-2.04 9.432-3.844 3.035-2.92 4.887-7.08 4.956-11.14.14-8.33-2.906-12.92-6.128-17.78-.946-1.423-1.904-2.872-2.81-4.44-2.63-4.54-4.71-9.842-5.89-13.162zM12.584 43.694l-.018-.005c-1.77-.47-2.85-2.25-2.34-4.17.507-1.92 2.304-2.92 4.073-2.46l.01.004c1.77.47 2.85 2.25 2.34 4.17-.51 1.92-2.305 2.92-4.075 2.45zm1.373-5.184l-.018-.005c-1.07-.283-2.17.264-2.46 1.366-.29 1.11.38 2.1 1.44 2.38l.02.01c1.07.288 2.162-.26 2.453-1.36.292-1.103-.378-2.098-1.444-2.38zm-1.897-4.33l.7-1.353 3.188-.25-1.633-2.747.7-1.352 5.702 2.955-.647 1.246-3.72-1.93 1.602 2.86-.017.03-3.235.34 3.698 1.915-.637 1.23-5.7-2.955zm4.306-7.67l2.998-3.807.987.778-2.12 2.71 1.025.81 1.873-2.38.987.778-1.875 2.38 1.06.834 2.156-2.74.99.778-3.027 3.843-5.048-3.974zm6.388-2.768l-.012-.014c-1.205-1.375-1.12-3.44.345-4.723.87-.76 1.602-.987 2.48-1l.04 1.395c-.647.016-1.135.127-1.695.617-.775.678-.79 1.9-.07 2.723l.01.013c.776.885 1.953 1.002 2.81.25.387-.337.648-.737.747-1.166l-.61-.692-1.07.938-.81-.92 2.1-1.84 1.84 2.103c-.13.857-.51 1.802-1.395 2.576-1.505 1.32-3.467 1.17-4.72-.26zm6.176-8.898l1.13-.653 5.627 4.24-1.282.74-1.23-.953-2.356 1.36.21 1.54-1.25.724-.85-6.99zm3.182 2.534l-1.784-1.38.304 2.234 1.48-.854zm2.28-2.07l2.624-1.06.5 1.243-2.622 1.06-.502-1.24zm4.078 1.022l.704-1.145c.553.367 1.07.515 1.7.35.515-.138.802-.528.68-.99l-.005-.018c-.14-.507-.67-.672-1.43-.47l-.57.15-.45-.813 1.09-1.886-2.447.647-.31-1.174 4.205-1.11.274 1.03-1.176 1.92c.88-.08 1.826.15 2.132 1.3l.005.02c.31 1.18-.316 2.26-1.7 2.63-1.12.3-2.015.06-2.716-.43zm25.267-4.955l2.424 1.015c1.42.593 1.93 1.79 1.42 3.003l-.002.017c-.576 1.374-1.94 1.64-3.273 1.082l-.992-.415-.745 1.78-1.304-.547 2.485-5.935zm1.088 3.972c.653.274 1.198.043 1.41-.466l.008-.01c.244-.582-.03-1.07-.684-1.34l-1.01-.42-.76 1.815 1.03.43zm3.75 2.23l2.06-3.048 1.174.79-2.05 3.02c-.59.87-.46 1.61.26 2.09.714.484 1.443.344 2.02-.5l2.07-3.057 1.17.793-2.038 3.01c-1.093 1.616-2.537 1.794-3.97.826-1.43-.97-1.768-2.363-.704-3.934zm8.9 1.983l2.056 2.092c.58.582.86 1.193.85 1.79 0 .506-.23.997-.66 1.42l-.01.013c-.74.726-1.593.783-2.38.414l-.535 2.72-1.157-1.18.5-2.42-.777-.79-1.463 1.44-.99-1.01 4.574-4.498zm-.23 4.212c.482.49 1.02.514 1.405.135l.014-.013c.43-.424.356-.943-.124-1.433l-.983-1-1.315 1.3 1.002 1.02zm5.553 1.66l.834 1.145-5.205 3.792-.834-1.15 5.205-3.79zm1.965 5.45l-.916-1.726 1.153-.61 2.49 4.702-1.15.61-.914-1.726-4.524 2.397-.662-1.25 4.523-2.4zm.492 7.524l2.99-3.518.49 1.58-2.012 2.233 2.93.73.477 1.54-4.428-1.21-2.45.76-.42-1.35 2.423-.754zm-73.158 16.94l.018-.002c1.792-.35 3.522.715 3.9 2.65.232 1.187-.025 1.976-.488 2.674l-1.19-.684c.348-.574.52-1.12.398-1.75-.207-1.064-1.238-1.657-2.32-1.446l-.017.005c-1.08.21-1.835 1.133-1.623 2.214.14.72.514 1.105 1.06 1.51l-.718 1.058c-.82-.512-1.393-1.148-1.63-2.365-.363-1.854.8-3.51 2.61-3.864zm4.735 6.374l.518 1.317-4.79 1.884 1.173 2.99-1.198.47-1.692-4.3 5.99-2.35zm2.366 5.472l.684 1.236-5.622 3.113-.685-1.23 5.623-3.11zm1.53 2.803l.8 1.028-1.273 4.81L23.38 73.4l.856 1.103-5.073 3.947-.74-.95 1.314-4.967-3.224 2.51-.858-1.1 5.072-3.948zm4.815 5.735l1.024.973-4.42 4.655-1.024-.973 4.42-4.655zm.247 4.7l.01-.013c1.048-1.494 3.033-1.93 4.648-.796.99.7 1.352 1.45 1.504 2.27l-1.332.33c-.147-.65-.402-1.162-.928-1.53-.886-.622-2.04-.335-2.673.567l-.02.015c-.63.9-.538 2.09.364 2.72.6.424 1.137.44 1.813.355l.214 1.26c-.945.197-1.8.14-2.812-.575-1.546-1.085-1.857-3.087-.8-4.595zm9.83 2.167l1.2.514-.022 7.04-1.36-.58.03-1.55-2.5-1.073-1.11 1.093-1.325-.57 5.087-4.87zm-.124 4.064l.037-2.25-1.608 1.58 1.57.68zm4.93-2.17l1.38.305-1.107 5.02 3.12.69-.278 1.255-4.51-.996 1.385-6.28zm8.526 6.825l.8-1.033c.597.457 1.214.74 1.95.71.58-.02.918-.263.906-.64l-.002-.02c-.012-.36-.24-.534-1.325-.77-1.3-.283-2.15-.61-2.2-1.89v-.02c-.04-1.164.87-1.97 2.18-2.02.94-.033 1.75.23 2.42.73l-.69 1.09c-.585-.37-1.154-.59-1.697-.57-.54.02-.82.28-.806.59v.02c.017.424.296.55 1.42.797 1.317.29 2.068.733 2.11 1.854v.02c.046 1.28-.9 2.03-2.29 2.08-.972.033-1.97-.27-2.765-.93zm7.816-4.882l-1.917.398-.26-1.276 5.22-1.084.27 1.28-1.916.4 1.043 5.02-1.387.29-1.043-5.025zm4.184-2.33l2.714-1.124c.753-.313 1.427-.344 1.98-.115.466.194.84.586 1.07 1.145l.006.017c.397.96.13 1.778-.51 2.37l2.33 1.52-1.528.63-2.06-1.37-1.025.425.78 1.9-1.31.54-2.46-5.935zm3.823 1.793c.636-.265.858-.755.653-1.255l-.007-.016c-.23-.56-.74-.686-1.37-.423l-1.3.54.71 1.704 1.324-.55zm2.36-4.545l4.043-2.662.69 1.05L69 81.622l.715 1.09 2.527-1.665.69 1.05-2.526 1.664.74 1.13 2.91-1.912.692 1.05-4.08 2.687-3.53-5.362zm5.18-3.547l.933-.91 4.928.722-2.77-2.834.998-.974L80.9 78.41l-.86.84-5.082-.747 2.86 2.925-1 .975-4.496-4.603zm7.665-3.237l-.013-.01c-1.525-1.01-1.987-3.024-.91-4.65.642-.966 1.287-1.375 2.134-1.62l.41 1.338c-.62.188-1.06.42-1.47 1.04-.57.86-.263 2.046.65 2.65l.015.01c.98.65 2.147.455 2.776-.496.286-.43.434-.884.417-1.324l-.765-.51-.79 1.19-1.016-.68 1.543-2.33 2.33 1.545c.1.862-.02 1.873-.67 2.854-1.11 1.667-3.044 2.04-4.63.99zm3.057-9.02l-.756 1.808-1.2-.502 2.06-4.915 1.2.505-.75 1.806 4.73 1.983-.54 1.304-4.734-1.98zm.466-4.75l.287-1.387 2.494.516.53-2.557-2.493-.52.29-1.383 6.3 1.307-.28 1.39-2.53-.527-.53 2.556 2.53.526-.29 1.39-6.3-1.31z"/></svg>