<svg xmlns="http://www.w3.org/2000/svg" viewBox="0 0 140 140"><path fill="#FF5349" d="M140 70c0 38.66-31.34 70-70 70S0 108.66 0 70 31.34 0 70 0s70 31.34 70 70zM32.255 51.19H20.218l-6.714 33.57h3.5l2.16-10.6h9.495c9.59 0 15.58-4.844 15.58-13.476 0-5.994-4.41-9.495-11.99-9.495zm-3.55 19.854H19.74l3.405-16.785h8.824c5.61 0 8.72 2.34 8.72 6.76 0 6.62-4.37 10.02-11.99 10.02zm18.51 13.716h3.404l7.09-35.585h-3.4l-7.1 35.585zm37.262-25.226L81.79 73.106c-1.198 5.85-4.892 8.825-10.215 8.825-4.316 0-6.426-2.11-6.426-5.75 0-.72.09-1.44.24-2.25l2.87-14.38h-3.4l-2.88 14.38c-.19 1.01-.29 1.92-.29 2.83 0 5.18 3.31 8.25 8.97 8.25 3.88 0 7.29-1.343 9.73-4.27l-.817 4.03h3.26l5.036-25.225h-3.41zM99.722 85c6.714 0 11.174-2.878 11.174-7.865 0-8.393-14.29-4.412-14.29-10.263 0-2.734 2.636-4.604 7.288-4.604 2.59 0 5.42.67 7.385 2.158l1.44-2.734c-1.92-1.44-5.33-2.35-8.54-2.35-6.62 0-10.94 3.07-10.94 7.865 0 8.537 14.29 4.604 14.29 10.31 0 2.83-2.64 4.51-7.48 4.51-3.45 0-6.81-1.105-8.73-2.783l-1.63 2.686c1.97 1.774 5.9 3.07 10.03 3.07zm17.933 0c1.44 0 2.59-1.152 2.59-2.638 0-1.295-1.055-2.302-2.447-2.302-1.44 0-2.59 1.102-2.59 2.59 0 1.246 1.056 2.35 2.447 2.35zm.335-10.312h2.638l5.372-23.5h-4.03l-3.98 23.5z"/></svg>