<svg id="Layer_1" xmlns="http://www.w3.org/2000/svg" xmlns:xlink="http://www.w3.org/1999/xlink" viewBox="0 0 290 220"><style>.st0{fill:#D8E4EB;} .st1{fill:#02242E;} .st2{fill:#65818A;} .st3{fill:#011014;} .st4{fill:#F7FBFC;} .st5{clip-path:url(#SVGID_2_);fill:#F7FBFC;} .st6{clip-path:url(#SVGID_2_);fill:#0085C2;} .st7{clip-path:url(#SVGID_2_);} .st8{fill:#0085C2;}</style><path class="st0" d="M152.443 2.034l5.33 3.914c2.735 2.01 6.274 2.57 9.497 1.504l6.278-2.076c4.35-1.438 9.132.115 11.806 3.835l3.858 5.37c1.98 2.76 5.174 4.39 8.57 4.37l6.61-.03c4.583-.02 8.65 2.93 10.044 7.3l2.01 6.3c1.032 3.24 3.566 5.77 6.8 6.8l6.3 2.01c4.364 1.4 7.32 5.46 7.295 10.04l-.03 6.61c-.02 3.4 1.61 6.59 4.37 8.57l5.37 3.86c3.72 2.67 5.28 7.45 3.84 11.8l-2.07 6.28c-1.06 3.22-.5 6.76 1.51 9.5l3.92 5.33c2.715 3.7 2.715 8.72 0 12.41l-3.912 5.33c-2.01 2.74-2.57 6.28-1.502 9.5l2.075 6.28c1.44 4.35-.117 9.13-3.84 11.808l-5.37 3.857c-2.754 1.98-4.38 5.174-4.363 8.568l.035 6.61c.025 4.585-2.93 8.65-7.295 10.044l-6.3 2.01c-3.232 1.03-5.766 3.565-6.8 6.798l-2.01 6.297c-1.39 4.366-5.46 7.32-10.04 7.296l-6.61-.035c-3.397-.015-6.59 1.61-8.57 4.368l-3.86 5.366c-2.675 3.72-7.456 5.276-11.807 3.837l-6.276-2.076c-3.222-1.07-6.762-.51-9.5 1.5l-5.33 3.91c-3.69 2.71-8.72 2.71-12.41 0l-5.33-3.913c-2.735-2.01-6.274-2.57-9.5-1.504l-6.28 2.076c-4.35 1.44-9.13-.116-11.803-3.836l-3.86-5.363c-1.98-2.76-5.172-4.385-8.567-4.367l-6.614.033c-4.584.025-8.65-2.93-10.045-7.294l-2.01-6.3c-1.03-3.233-3.57-5.767-6.8-6.8l-6.3-2.01c-4.367-1.39-7.32-5.458-7.298-10.04l.033-6.61c.016-3.395-1.61-6.588-4.368-8.568l-5.37-3.86c-3.72-2.676-5.27-7.456-3.83-11.806l2.075-6.275c1.07-3.22.51-6.76-1.5-9.494l-3.913-5.33c-2.71-3.69-2.71-8.72 0-12.41l3.914-5.33c2.01-2.733 2.57-6.272 1.505-9.495L42.1 82.2c-1.44-4.35.114-9.13 3.835-11.804l5.37-3.86c2.757-1.98 4.384-5.172 4.366-8.566l-.03-6.61c-.02-4.582 2.93-8.65 7.3-10.04l6.3-2.01c3.24-1.033 5.77-3.567 6.8-6.8l2.01-6.298c1.39-4.366 5.46-7.32 10.04-7.296l6.61.034c3.4.02 6.59-1.61 8.57-4.364l3.86-5.37c2.68-3.72 7.46-5.27 11.81-3.832l6.28 2.076c3.23 1.066 6.77.505 9.5-1.504l5.33-3.915c3.69-2.71 8.72-2.71 12.41 0z"/><path class="st0" d="M27.004 171.467L0 148.253h114.56v46.43H0zm235.174 0l27.004-23.214h-114.56v46.43h114.56z"/><path class="st1" d="M27.725 170.553L1.097 148.618h112.967v43.87H1.097zm231.905 0l26.627-21.935H173.29v43.87h112.967z"/><path class="st2" d="M6.19 150.446h106.046v40.215H6.19l24.41-20.1-24.41-20.11zm5.095 38.387h99.123v-36.56H11.285l22.19 18.28-22.19 18.28zm269.878-38.387H175.118v40.215h106.045l-24.41-20.1 24.41-20.11zm-5.094 38.387h-99.13v-36.56h99.12l-22.19 18.28 22.19 18.28z"/><path class="st3" d="M34 137.833l80.064 12.065v43.87L34 181.704zm139.29 12.065v43.87l80.064-12.064v-43.87z"/><path class="st4" d="M149.623 3.99l5.105 3.75c2.62 1.924 6.012 2.46 9.1 1.44l6.014-1.988c4.168-1.378 8.75.11 11.31 3.674l3.698 5.143c1.898 2.64 4.957 4.19 8.21 4.18l6.334-.04c4.39-.03 8.286 2.8 9.62 6.99l1.927 6.03c.99 3.09 3.42 5.52 6.52 6.51l6.04 1.92c4.19 1.33 7.02 5.23 6.99 9.62l-.03 6.33c-.01 3.25 1.55 6.31 4.19 8.2l5.15 3.693c3.57 2.56 5.06 7.14 3.68 11.307l-1.99 6.016c-1.02 3.083-.483 6.473 1.44 9.1l3.75 5.1c2.6 3.54 2.6 8.35 0 11.89l-3.75 5.103c-1.924 2.62-2.46 6.01-1.44 9.1l1.99 6.01c1.38 4.163-.11 8.74-3.675 11.304l-5.144 3.7c-2.64 1.893-4.2 4.952-4.182 8.203l.033 6.33c.02 4.39-2.81 8.286-6.99 9.62l-6.037 1.927c-3.098.99-5.526 3.412-6.515 6.51l-1.93 6.03c-1.334 4.18-5.23 7.01-9.62 6.99l-6.335-.034c-3.253-.02-6.31 1.54-8.21 4.18l-3.7 5.145c-2.56 3.566-7.14 5.05-11.31 3.676l-6.012-1.986c-3.085-1.02-6.48-.486-9.1 1.44l-5.102 3.75c-3.54 2.596-8.355 2.596-11.894 0l-5.1-3.75c-2.62-1.926-6.013-2.46-9.1-1.44l-6.015 1.986c-4.168 1.38-8.75-.11-11.31-3.67l-3.698-5.146c-1.9-2.64-4.96-4.2-8.21-4.18l-6.33.03c-4.39.025-8.29-2.805-9.625-6.99l-1.92-6.03c-.99-3.097-3.42-5.524-6.517-6.512l-6.037-1.922c-4.184-1.336-7.015-5.23-6.99-9.62l.03-6.333c.018-3.25-1.54-6.31-4.182-8.204l-5.14-3.696c-3.57-2.56-5.06-7.14-3.68-11.31l1.99-6.012c1.02-3.084.484-6.474-1.44-9.1l-3.75-5.1c-2.6-3.536-2.6-8.35 0-11.89l3.75-5.103c1.925-2.62 2.46-6.01 1.44-9.095l-1.99-6.014c-1.376-4.164.11-8.743 3.677-11.305l5.143-3.696c2.64-1.896 4.2-4.955 4.185-8.206l-.03-6.334c-.02-4.39 2.81-8.28 6.99-9.62l6.038-1.92c3.1-.99 5.527-3.416 6.516-6.51l1.924-6.037c1.337-4.18 5.23-7.013 9.62-6.99l6.338.033c3.255.01 6.31-1.54 8.21-4.18l3.7-5.15c2.56-3.565 7.14-5.05 11.31-3.675l6.012 1.984c3.09 1.02 6.48.487 9.1-1.44l5.103-3.75c3.54-2.595 8.355-2.595 11.893 0z"/><path class="st3" d="M246.652 112.886c2.6-3.537 2.6-8.352 0-11.89l-3.75-5.104c-1.925-2.62-2.462-6.01-1.44-9.098l1.988-6.013c1.378-4.16-.11-8.74-3.675-11.3l-5.144-3.69c-2.64-1.89-4.2-4.95-4.18-8.2l.04-6.33c.03-4.39-2.8-8.28-6.99-9.62l-6.03-1.92c-3.1-.99-5.52-3.412-6.51-6.51l-1.92-6.033c-1.33-4.18-5.23-7.014-9.62-6.99l-6.34.03c-3.25.018-6.31-1.54-8.21-4.18l-3.69-5.143c-2.564-3.562-7.144-5.05-11.31-3.672l-6.02 1.99c-3.086 1.02-6.48.486-9.1-1.44L149.63 4c-3.54-2.598-8.355-2.598-11.894 0l-5.105 3.75c-2.62 1.924-6.01 2.46-9.1 1.44l-6.01-1.99c-4.16-1.378-8.74.11-11.31 3.674l-3.69 5.144c-1.9 2.64-4.96 4.2-8.21 4.182l-6.33-.033c-4.39-.024-8.28 2.806-9.62 6.99l-1.92 6.03c-.99 3.098-3.42 5.525-6.512 6.513l-6.034 1.926c-4.183 1.336-7.014 5.23-6.99 9.62l.03 6.33c.018 3.25-1.54 6.31-4.182 8.21l-5.15 3.696c-3.563 2.56-5.05 7.14-3.673 11.308l1.99 6.01c1.02 3.087.482 6.477-1.443 9.098L40.71 101c-2.6 3.536-2.6 8.35 0 11.89l3.75 5.103c1.923 2.62 2.46 6.01 1.44 9.098l-1.99 6.02c-1.378 4.17.11 8.75 3.675 11.31l5.15 3.7c2.64 1.9 4.2 4.96 4.187 8.21l-.034 6.34c-.023 4.39 2.808 8.28 6.99 9.62l6.035 1.93c3.1.99 5.53 3.415 6.52 6.512l1.93 6.033c1.337 4.18 5.23 7.01 9.62 6.99l6.338-.035c3.25-.015 6.31 1.54 8.21 4.184l3.7 5.144c2.56 3.56 7.14 5.05 11.31 3.67l6.02-1.983c3.088-1.02 6.48-.48 9.1 1.44l5.105 3.75c3.538 2.6 8.354 2.6 11.893 0l5.104-3.75c2.62-1.92 6.016-2.46 9.1-1.44l6.018 1.99c4.17 1.38 8.75-.11 11.31-3.672l3.7-5.14c1.9-2.64 4.96-4.2 8.21-4.182l6.338.037c4.39.023 8.284-2.807 9.62-6.99l1.925-6.03c.99-3.1 3.417-5.527 6.515-6.515l6.038-1.93c4.186-1.337 7.017-5.23 6.99-9.62l-.03-6.334c-.014-3.25 1.545-6.31 4.186-8.21l5.14-3.695c3.565-2.562 5.053-7.142 3.675-11.31l-1.99-6.012c-1.02-3.082-.486-6.472 1.44-9.093l3.75-5.103zm-6.58 14.66l1.99 6.014c1.183 3.58-.08 7.46-3.14 9.66l-5.145 3.697c-3.02 2.17-4.81 5.685-4.792 9.403l.033 6.332c.02 3.77-2.38 7.072-5.972 8.22l-6.035 1.924c-3.54 1.13-6.33 3.92-7.46 7.462l-1.92 6.033c-1.14 3.58-4.42 5.98-8.17 5.98l-6.44-.03c-3.69 0-7.19 1.79-9.34 4.79l-3.69 5.15c-1.602 2.24-4.21 3.58-6.97 3.58-.91 0-1.82-.14-2.69-.43l-6.013-1.986c-1.166-.386-2.38-.582-3.61-.582-2.47 0-4.824.777-6.813 2.238l-5.103 3.75c-1.48 1.09-3.24 1.666-5.08 1.666-1.84 0-3.6-.58-5.08-1.667l-5.105-3.75c-1.99-1.46-4.343-2.235-6.81-2.235-1.23 0-2.443.195-3.61.58l-6.014 1.99c-.872.29-1.78.433-2.693.433-2.76 0-5.365-1.338-6.974-3.576l-3.695-5.146c-2.15-3-5.642-4.79-9.34-4.79l-6.44.03c-3.75 0-7.033-2.4-8.174-5.97l-1.925-6.034c-1.13-3.54-3.92-6.33-7.468-7.46l-6.033-1.924c-3.59-1.146-5.99-4.45-5.97-8.22l.032-6.333c.02-3.72-1.77-7.234-4.79-9.403l-5.147-3.695c-3.06-2.2-4.32-6.08-3.14-9.66l1.99-6.01c1.17-3.53.55-7.425-1.65-10.42l-3.75-5.106c-2.23-3.04-2.23-7.12 0-10.16l3.75-5.105c2.2-2.997 2.82-6.893 1.65-10.423l-1.99-6.013c-1.18-3.58.08-7.46 3.14-9.66l5.14-3.7c3.02-2.17 4.81-5.69 4.795-9.41l-.036-6.33c-.02-3.77 2.38-7.07 5.974-8.22l6.034-1.92c3.542-1.13 6.332-3.92 7.463-7.466l1.926-6.034c1.14-3.57 4.426-5.97 8.175-5.97l6.44.034c3.692 0 7.19-1.79 9.34-4.79l3.7-5.144c1.61-2.234 4.217-3.57 6.97-3.57.92 0 1.825.146 2.697.435l6.014 1.99c1.17.384 2.386.58 3.615.58 2.47 0 4.824-.773 6.813-2.233l5.105-3.75c1.483-1.09 3.24-1.663 5.08-1.663 1.84 0 3.598.574 5.08 1.663l5.107 3.75c1.99 1.46 4.35 2.23 6.817 2.23 1.23 0 2.448-.19 3.616-.58l6.016-1.99c.876-.285 1.78-.43 2.697-.43 2.757 0 5.36 1.34 6.97 3.575l3.7 5.14c2.16 3 5.65 4.792 9.344 4.792l6.44-.035c3.75 0 7.033 2.4 8.173 5.97l1.93 6.034c1.13 3.54 3.92 6.33 7.463 7.46l6.037 1.922c3.59 1.143 5.99 4.45 5.97 8.22l-.03 6.33c-.02 3.714 1.776 7.23 4.796 9.4l5.144 3.695c3.064 2.2 4.326 6.084 3.14 9.663l-1.99 6.015c-1.164 3.53-.55 7.423 1.654 10.42l3.75 5.105c2.23 3.04 2.23 7.12 0 10.16l-3.75 5.104c-2.2 2.998-2.82 6.89-1.65 10.425z"/><circle class="st0" cx="146.236" cy="109.5" r="85.171"/><defs><circle id="SVGID_1_" cx="143.677" cy="106.941" r="80.284"/></defs><use xlink:href="#SVGID_1_" overflow="visible" fill="#F7FBFC"/><clipPath id="SVGID_2_"><use xlink:href="#SVGID_1_" overflow="visible"/></clipPath><path class="st5" d="M143.677 30.167c-42.4 0-76.774 34.373-76.774 76.774 0 42.41 34.373 76.78 76.774 76.78s76.774-34.37 76.774-76.77-34.37-76.77-76.77-76.77zm54.26 90.303c-7.47 29.968-37.825 48.202-67.797 40.732-29.96-7.472-48.2-37.824-40.723-67.786 7.467-29.97 37.82-48.207 67.784-40.737 29.98 7.47 48.21 37.82 40.74 67.79z"/><path class="st6" d="M143.677 26.657c-44.34 0-80.284 35.944-80.284 80.284s35.944 80.29 80.284 80.29 80.284-35.94 80.284-80.28-35.94-80.28-80.28-80.28zm0 157.058c-42.4 0-76.774-34.373-76.774-76.774 0-42.4 34.373-76.77 76.774-76.77s76.773 34.37 76.773 76.77c0 42.41-34.372 76.78-76.773 76.78z"/><g class="st7"><circle class="st8" cx="77.322" cy="106.941" r="3.656"/><circle class="st8" cx="210.031" cy="106.941" r="3.656"/></g><path class="st6" d="M157.2 52.68c-29.962-7.47-60.316 10.765-67.783 40.737-7.476 29.963 10.764 60.315 40.723 67.786 29.97 7.47 60.325-10.764 67.798-40.732 7.47-29.96-10.765-60.32-40.737-67.79zm36.837 66.817c-6.935 27.813-35.107 44.737-62.923 37.804-27.804-6.93-44.734-35.1-37.796-62.91 6.93-27.81 35.102-44.74 62.91-37.81 27.817 6.94 44.743 35.11 37.81 62.92z"/><path class="st7 st8" d="M87.304 84.96l-1.012 2.982-5.757-1.954c-.7-.237-1.334-.47-1.904-.696.17.26.32.566.47.922l.6 1.58-2.39.89-1.77-4.767.9-2.648 10.87 3.69zm-.084-12.77c1.794.955 2.947 1.956 3.46 3.002.514 1.046.44 2.187-.22 3.425-.646 1.21-1.568 1.89-2.767 2.04-1.2.15-2.657-.232-4.376-1.15-1.802-.96-2.963-1.965-3.483-3.015s-.45-2.193.21-3.43c.643-1.207 1.567-1.885 2.772-2.034 1.205-.15 2.673.237 4.405 1.16zm-2.45 4.594c1.146.61 1.972.96 2.478 1.046.506.086.85-.04 1.03-.377.18-.342.088-.702-.28-1.08-.368-.377-1.112-.864-2.23-1.46-1.123-.6-1.948-.947-2.474-1.044-.527-.1-.88.02-1.06.36-.18.33-.09.69.267 1.06.36.37 1.12.87 2.27 1.48zm8.8-13.237c1.615 1.233 2.592 2.406 2.93 3.52.338 1.116.082 2.23-.77 3.346-.832 1.09-1.852 1.613-3.06 1.568-1.206-.04-2.584-.65-4.132-1.84-1.624-1.23-2.607-2.41-2.952-3.53-.345-1.12-.09-2.23.76-3.35.83-1.08 1.85-1.6 3.063-1.56 1.21.05 2.6.67 4.16 1.86zm-3.16 4.14c1.033.788 1.79 1.265 2.277 1.43.486.167.844.1 1.076-.205.235-.308.2-.678-.1-1.11-.304-.432-.96-1.032-1.966-1.8-1.01-.773-1.77-1.25-2.274-1.43-.504-.18-.873-.12-1.104.185-.24.304-.21.67.09 1.097.29.428.96 1.04 2 1.833zm7.36-11.59c.754.87 1.142 1.715 1.163 2.53.022.818-.33 1.54-1.054 2.167-.68.59-1.44.81-2.26.663-.83-.148-1.6-.64-2.33-1.48-.76-.87-1.14-1.708-1.16-2.513-.02-.805.32-1.51 1.02-2.118.69-.6 1.45-.833 2.28-.7.83.133 1.6.617 2.33 1.452zm-2.67 2.355c.395.455.717.75.967.888.25.137.45.14.6.01.15-.13.177-.327.08-.588-.1-.26-.35-.623-.75-1.086-.395-.455-.717-.752-.965-.89s-.447-.142-.598-.012c-.154.134-.18.335-.074.604.107.27.353.627.74 1.074zm4.752-8.693l2.71 12.84-1.764 1.53-2.71-12.85 1.764-1.53zm7.51 4.07c.75.86 1.137 1.71 1.156 2.52.02.82-.33 1.54-1.05 2.16-.682.59-1.434.81-2.26.66-.824-.15-1.598-.64-2.322-1.48-.755-.87-1.14-1.71-1.16-2.52-.02-.81.322-1.51 1.022-2.12.692-.6 1.453-.838 2.283-.7.84.13 1.61.613 2.34 1.45zm-2.668 2.35c.395.45.717.75.967.88s.45.14.61.01c.17-.15.19-.37.05-.66-.13-.29-.37-.63-.72-1.03-.34-.4-.64-.68-.91-.86-.26-.174-.48-.187-.65-.04-.15.134-.18.335-.07.604.11.27.35.626.74 1.073zm15.19-4.83l-5.246-6.81-.066.02c.624 1.27 1.08 2.26 1.37 2.99l1.846 4.63-2.553 1.01-4.253-10.67L114.82 41l5.24 6.686.06-.025-.84-8.44 3.84-1.53 4.252 10.67-2.65 1.06-1.864-4.68c-.098-.24-.2-.51-.313-.81-.11-.3-.368-1.04-.77-2.22l-.067.028.907 8.527-2.74 1.09zm19.726-10.71c.278 1.91.02 3.43-.773 4.56-.794 1.13-2.095 1.83-3.903 2.09-1.783.26-3.222-.05-4.318-.91-1.096-.86-1.783-2.25-2.06-4.16-.274-1.89-.01-3.41.79-4.54.8-1.14 2.103-1.83 3.907-2.1 1.808-.27 3.25.03 4.327.88 1.076.852 1.753 2.24 2.03 4.155zm-7.82 1.13c.32 2.19 1.243 3.18 2.772 2.96.777-.12 1.315-.47 1.613-1.05.298-.59.365-1.45.202-2.58-.165-1.14-.477-1.95-.936-2.43-.45-.49-1.06-.68-1.82-.57-1.54.22-2.14 1.44-1.82 3.66zm21.72 5.28l-4.06-.29-3.605-8.37-.07-.01c.008 1.27-.012 2.25-.06 2.91l-.37 5.16-2.74-.2.818-11.456 4.043.29 3.598 8.256.047.006c.01-1.16.04-2.09.09-2.79l.37-5.176 2.76.2-.82 11.454zm9.225 2.4l-6.59-1.75 2.943-11.1 6.59 1.75-.638 2.4-3.59-.95-.464 1.74 3.325.88-.63 2.41-3.32-.88-.55 2.09 3.59.95-.64 2.444zm8.95-4.13l3.564-3.06 3.06 1.39-6.34 4.8-1.86 4.08-2.85-1.297 1.82-3.995-.5-8.02 3.07 1.4.02 4.69zm14.625 3.53l3.084 2.55c1.202.995 1.946 1.913 2.233 2.753.287.84.118 1.637-.507 2.39-.41.497-.89.815-1.433.955-.545.14-1.067.09-1.566-.15l-.05.06c.43.6.63 1.17.59 1.714-.03.54-.27 1.082-.72 1.622-.66.8-1.49 1.183-2.47 1.145-.98-.036-2-.486-3.04-1.35l-3.44-2.85 7.33-8.84zm-1.87 7.12l-1.54 1.86.84.69c.747.62 1.38.61 1.902-.02.244-.297.33-.606.262-.928-.07-.324-.293-.64-.673-.956l-.79-.656zm1.447-1.75l.72.59c.343.285.666.434.97.45.306.01.573-.12.804-.4.42-.496.25-1.055-.5-1.676l-.67-.558-1.31 1.586zm5.96 16.12l1.3-1.81-2.378-2.88-2.03.925-2.17-2.625 11.27-4.456 2.63 3.19L194 72.97l-2.17-2.616zm2.85-3.93l1.14-1.58c.25-.357.576-.81.984-1.36.41-.55.71-.94.9-1.163-.23.134-.63.342-1.19.626-.56.28-1.68.813-3.38 1.593l1.56 1.88zm10.446 7.945c-.357-.646-.9-1.005-1.63-1.074-.728-.07-1.558.156-2.49.67-1.934 1.07-2.495 2.335-1.683 3.81.246.44.545.84.9 1.19.353.35.733.683 1.14 1.01l-2.297 1.27c-.834-.636-1.544-1.48-2.128-2.54-.838-1.52-1.04-2.92-.606-4.22.43-1.295 1.48-2.4 3.14-3.32 1.04-.574 2.06-.883 3.07-.926 1-.04 1.92.19 2.75.69.83.5 1.52 1.25 2.07 2.246.6 1.088.93 2.257 1.01 3.508l-2.6.35c-.03-.47-.09-.92-.18-1.36-.09-.434-.25-.866-.48-1.292zm-2.373 18.69l-1.107-3.325 3.448-3.54-.81-.694-3.64 1.22-.98-2.957 10.9-3.63.99 2.96-4.73 1.576c.34.05.91.194 1.7.44l4.1 1.18 1.076 3.22-6.027-1.81-4.89 5.37zM75.06 128.69l-.84-3.034 5.86-1.617c.713-.2 1.368-.36 1.967-.5-.28-.13-.58-.29-.904-.5l-1.384-.97 1.48-2.08 4.14 2.94.74 2.69-11.07 3.05zm10.84 10.834c-1.827.887-3.315 1.23-4.462 1.03-1.147-.2-2.028-.93-2.64-2.194-.6-1.23-.606-2.38-.022-3.432s1.752-2.01 3.505-2.862c1.84-.89 3.34-1.238 4.49-1.042 1.16.198 2.04.927 2.65 2.19.6 1.23.6 2.375.02 3.437-.59 1.07-1.76 2.03-3.53 2.88zm-2.27-4.685c-1.17.56-1.937 1.03-2.305 1.38-.367.36-.468.71-.3 1.05.168.35.513.48 1.035.41.522-.08 1.353-.39 2.493-.95 1.145-.56 1.91-1.02 2.3-1.39.388-.367.5-.72.332-1.067-.167-.344-.507-.48-1.02-.413-.513.07-1.36.39-2.536.96zm9.106 14.56c-1.638 1.2-3.04 1.81-4.204 1.82-1.165.01-2.162-.55-2.993-1.69-.82-1.11-1.03-2.23-.65-3.38s1.36-2.3 2.93-3.45c1.64-1.21 3.05-1.82 4.22-1.84 1.17-.02 2.17.54 3 1.67.81 1.1 1.02 2.23.63 3.38s-1.37 2.304-2.96 3.47zm-3.08-4.2c-1.048.77-1.72 1.36-2.016 1.78-.297.42-.332.78-.106 1.09.23.31.594.38 1.094.21.5-.17 1.26-.63 2.282-1.38 1.026-.76 1.696-1.35 2.012-1.78.316-.44.36-.81.134-1.11-.226-.31-.586-.39-1.08-.23-.492.16-1.266.63-2.32 1.402zm17.744 10.26l-12.333 4.51-1.764-1.53 12.333-4.51 1.763 1.53zm-6.57-1.16c-.755.87-1.535 1.37-2.34 1.51-.804.13-1.568-.11-2.293-.74-.68-.59-1.007-1.31-.978-2.14.02-.84.4-1.68 1.13-2.52.75-.87 1.53-1.37 2.32-1.5.79-.137 1.54.1 2.24.71.69.6 1.03 1.32 1.02 2.16-.02.84-.39 1.68-1.11 2.51zm-2.712-2.3c-.394.45-.64.81-.74 1.08-.1.26-.074.46.076.59.15.13.348.13.593-.01s.568-.436.97-.9c.393-.46.64-.82.743-1.08.1-.27.077-.47-.074-.6-.154-.134-.357-.13-.61.013-.25.14-.57.43-.958.88zm6.32 11.48c-.75.87-1.528 1.37-2.335 1.51-.807.13-1.57-.11-2.29-.74-.682-.59-1.008-1.31-.98-2.14.03-.84.406-1.68 1.13-2.51.753-.87 1.527-1.37 2.32-1.51.795-.138 1.543.1 2.243.71.693.6 1.032 1.32 1.018 2.16-.013.84-.382 1.68-1.105 2.51zm-2.71-2.3c-.393.45-.64.81-.74 1.08-.1.26-.073.46.077.59.17.14.388.13.654-.04.26-.18.57-.47.91-.86.34-.4.58-.74.71-1.03.13-.29.11-.51-.06-.65-.16-.14-.36-.13-.61.01s-.57.44-.96.88zm18.454 6.59l4.626 1.78-2.222 5.78c-1.422-.05-2.885-.37-4.39-.94-1.652-.64-2.744-1.61-3.277-2.91-.54-1.31-.46-2.85.22-4.62.66-1.73 1.67-2.89 3.03-3.47 1.36-.59 2.92-.53 4.7.15.67.26 1.28.56 1.83.92.55.35 1.01.72 1.38 1.08l-1.79 1.92c-.63-.68-1.4-1.2-2.33-1.55-.85-.33-1.61-.308-2.28.07-.678.37-1.21 1.07-1.6 2.09-.39 1-.47 1.84-.26 2.53.216.68.717 1.18 1.504 1.48.43.17.844.28 1.24.33l.645-1.68-1.91-.73.86-2.24zm19.548-.33l-.997 6.84c-.217 1.48-.806 2.57-1.767 3.27-.96.69-2.234.92-3.82.69-1.55-.23-2.682-.8-3.398-1.71-.716-.92-.965-2.12-.748-3.6l1.01-6.91 3.084.45-.973 6.67c-.11.8-.05 1.4.2 1.81.25.4.67.65 1.25.74.63.09 1.11-.03 1.45-.34.34-.32.57-.89.69-1.71l.97-6.66 3.07.45zm11.614 11.04l-.718-2.11-3.72.26-.426 2.19-3.4.244 2.91-11.77 4.13-.3 4.61 11.23-3.386.24zm-1.543-4.6l-.62-1.85c-.14-.41-.32-.94-.53-1.59-.21-.654-.35-1.12-.43-1.404-.03.27-.09.716-.18 1.34-.09.62-.31 1.844-.66 3.675l2.44-.175zm11.69-1.58l1.16 4.013-2.98.862-3.19-11.03 3.62-1.047c3-.87 4.81-.215 5.44 1.96.37 1.28.03 2.445-1.01 3.505l4.61 3.874-3.38.98-3.5-3.337-.75.22zm-.65-2.24l.56-.16c1.04-.304 1.43-.916 1.16-1.836-.22-.76-.84-.99-1.86-.7l-.59.17.73 2.52zm18.96-.89l-1.51-1.63-3.29 1.766.51 2.17-3 1.61-2.15-11.93 3.64-1.96 8.797 8.37-2.99 1.6zm-3.28-3.567l-1.32-1.428c-.3-.315-.68-.726-1.14-1.23-.46-.51-.78-.88-.96-1.11.08.26.21.69.38 1.297s.467 1.814.9 3.627l2.15-1.158zm18.71-8.234l-3.06 2.69-8.49-3.31-.05.043c.92.89 1.6 1.59 2.04 2.092l3.42 3.89-2.065 1.814-7.576-8.63 3.046-2.673 8.407 3.24.04-.03c-.82-.82-1.46-1.498-1.92-2.025l-3.425-3.904 2.076-1.83 7.58 8.624zm7.14-8.83l-1.85 2.49-7.18-5.334-1.67 2.25-2.03-1.517 5.2-6.987 2.033 1.514-1.67 2.247 7.177 5.34zm7.37-12.865l-3.035 6.102-10.28-5.117 3.04-6.1 2.226 1.11-1.66 3.33 1.615.807 1.534-3.08 2.23 1.11-1.536 3.08 1.94.97 1.655-3.327 2.264 1.124zm3.95-11.75l-1.94 6.536-11.004-3.27 1.94-6.53 2.388.71-1.053 3.56 1.73.51.98-3.3 2.385.71-.98 3.293 2.08.61 1.056-3.56 2.427.72zM116.03 99.17c0-4.993.715-9.036 2.143-12.13 1.43-3.092 3.534-5.372 6.317-6.84 2.78-1.47 6.212-2.2 10.292-2.2 1.45 0 3.15.14 5.09.412v7.566c-1.637-.31-3.408-.468-5.317-.468-3.23 0-5.64.71-7.22 2.13-1.584 1.42-2.45 3.734-2.596 6.95h.29c1.47-2.775 3.83-4.16 7.07-4.16 3.18 0 5.65 1.02 7.4 3.07s2.63 4.9 2.63 8.555c0 3.933-1.11 7.038-3.33 9.314-2.22 2.27-5.32 3.41-9.3 3.41-4.23 0-7.53-1.37-9.917-4.12-2.383-2.74-3.574-6.58-3.574-11.51zm13.27 7.956c1.027 0 1.863-.39 2.51-1.165.642-.77.965-2.01.965-3.7 0-2.91-1.13-4.36-3.38-4.36-1.11 0-2.01.38-2.707 1.13-.693.758-1.04 1.67-1.04 2.75 0 1.57.335 2.853 1.005 3.856.668 1.008 1.55 1.51 2.64 1.51zm42-10.676c0 6.33-1.06 10.97-3.18 13.917-2.122 2.948-5.37 4.42-9.743 4.42-4.277 0-7.5-1.54-9.67-4.614s-3.257-7.65-3.257-13.72c0-6.365 1.06-11.032 3.18-14.002 2.12-2.97 5.37-4.46 9.74-4.46 4.26 0 7.48 1.55 9.655 4.64 2.18 3.09 3.27 7.7 3.27 13.82zm-16.23 0c0 4.05.255 6.83.76 8.35.507 1.516 1.355 2.275 2.547 2.275 1.206 0 2.06-.785 2.557-2.35.498-1.568.746-4.326.746-8.275 0-3.964-.26-6.742-.76-8.333-.51-1.59-1.36-2.386-2.55-2.386-1.19 0-2.04.77-2.548 2.3-.506 1.54-.76 4.34-.76 8.42zm-25.8 30.094c0 2.572-.71 4.556-2.125 5.95-1.415 1.39-3.41 2.09-5.973 2.09h-4.99v-15.42h5.337c2.47 0 4.38.63 5.73 1.9 1.34 1.27 2.01 3.094 2.01 5.49zm-4.324.146c0-1.41-.28-2.46-.84-3.14-.56-.688-1.407-1.03-2.546-1.03h-1.215v8.64h.927c1.264 0 2.192-.367 2.783-1.102.59-.733.886-1.86.886-3.37zm16.55 7.89l-.76-2.89h-5.01l-.78 2.89h-4.58l5.03-15.482h5.56l5.097 15.486H141.5zm-1.625-6.306l-.67-2.53c-.15-.56-.34-1.29-.56-2.18-.22-.9-.37-1.54-.44-1.92-.06.35-.19.942-.37 1.77-.18.82-.6 2.44-1.24 4.86h3.29zm13.35-3.395l2.66-5.72h4.51l-5.07 9.4v6.02h-4.19v-5.89l-5.07-9.53h4.54l2.64 5.71zm18.92 5.02c0 .95-.24 1.8-.72 2.54s-1.18 1.32-2.1 1.73c-.91.41-1.98.62-3.21.62-1.02 0-1.882-.07-2.58-.22s-1.42-.4-2.17-.76v-3.71c.795.404 1.62.722 2.48.95.86.23 1.646.347 2.363.347.617 0 1.07-.107 1.36-.32.29-.216.43-.49.43-.83 0-.21-.06-.396-.176-.554-.112-.157-.3-.317-.56-.48-.252-.16-.94-.49-2.05-.99-1.002-.457-1.76-.9-2.26-1.33-.5-.43-.873-.92-1.116-1.476-.24-.553-.36-1.21-.36-1.97 0-1.42.516-2.53 1.55-3.32s2.454-1.19 4.26-1.19c1.597 0 3.225.37 4.885 1.103l-1.275 3.216c-1.446-.66-2.69-.99-3.74-.99-.54 0-.93.096-1.18.286-.244.19-.37.43-.37.71 0 .3.16.573.47.81.315.24 1.16.677 2.55 1.31 1.33.598 2.252 1.24 2.77 1.925.515.68.773 1.542.773 2.59zm-28.46-72.4l2.56 5.18 5.72.83-4.14 4.03.98 5.693-5.11-2.69-5.11 2.69.976-5.697-4.14-4.034 5.72-.83zm-17.73 4.13l1.89 3.82 4.22.61-3.05 2.98.72 4.2-3.77-1.98-3.77 1.98.72-4.2-3.05-2.98 4.22-.61zm35.46 0l1.89 3.82 4.22.61-3.05 2.97.72 4.2-3.77-1.98-3.77 1.98.72-4.2-3.05-2.978 4.22-.613zm-17.73 78.97l2.56 5.18 5.72.83-4.14 4.03.98 5.693-5.11-2.69-5.112 2.69.97-5.698-4.14-4.038 5.72-.83zm-17.73 0l1.89 3.82 4.22.62-3.05 2.97.72 4.2-3.77-1.98-3.77 1.98.72-4.2-3.05-2.976 4.22-.614zm35.46 0l1.89 3.82 4.22.62-3.05 2.97.72 4.2-3.77-1.98-3.77 1.98.72-4.2-3.05-2.976 4.22-.614z"/><path class="st1" d="M34 137.833h219.354v43.87H34z"/><path class="st2" d="M35.828 139.66v40.216h215.698V139.66H35.828zm213.87 38.388H37.656v-36.56h212.042v36.56z"/><path class="st4" d="M52.097 151.107l2.558 5.184 5.72.84-4.14 4.04.978 5.7-5.116-2.69-5.117 2.69.977-5.69-4.14-4.03 5.72-.83zm183.16 0l2.558 5.184 5.72.84-4.14 4.04.98 5.7-5.118-2.69-5.117 2.69.978-5.69-4.14-4.03 5.72-.83zm-158.54 7.37h7.26v12.183c-2.056.878-4.243 1.316-6.56 1.316-2.763 0-4.888-1.05-6.377-3.15-1.49-2.102-2.234-5.13-2.234-9.08 0-3.813.853-6.796 2.558-8.952 1.706-2.155 4.09-3.233 7.156-3.233 1.895 0 3.704.49 5.426 1.47l-1.397 3.61c-1.35-.78-2.6-1.17-3.77-1.17-1.68 0-3.01.75-3.99 2.25s-1.47 3.55-1.47 6.13c0 2.67.35 4.71 1.06 6.13.71 1.42 1.74 2.13 3.09 2.13.71 0 1.44-.09 2.17-.27v-5.44H76.7v-3.9zm25.488-10.575v15.367c0 2.82-.64 4.98-1.917 6.47-1.278 1.49-3.124 2.23-5.54 2.23-2.36 0-4.157-.74-5.392-2.22-1.235-1.48-1.852-3.67-1.852-6.56v-15.3h4.386v15.62c0 3.02 1.002 4.53 3.005 4.53.93 0 1.65-.39 2.16-1.15.51-.77.763-1.86.763-3.28V147.9h4.387zm15.335 23.748l-1.365-5.993h-6.19l-1.363 5.994h-4.42l5.88-23.84h5.995l5.897 23.85h-4.434zm-2.193-9.907l-1.267-5.523c-.076-.336-.246-1.178-.512-2.526-.266-1.348-.425-2.25-.48-2.704-.14.93-.32 1.958-.535 3.078-.217 1.12-.78 3.68-1.69 7.676h4.484zm13.14.665v9.243h-4.417v-23.74h5.783c2.447 0 4.253.58 5.417 1.74 1.164 1.16 1.746 2.93 1.746 5.32 0 3-1.013 5.1-3.038 6.29l4.565 10.41h-4.727l-3.752-9.24h-1.576zm0-3.8h1.138c1.04 0 1.787-.296 2.242-.886.455-.59.682-1.47.682-2.64 0-1.212-.25-2.076-.73-2.59-.48-.515-1.23-.773-2.24-.773h-1.11v6.88zm23.458 13.042l-1.365-5.993h-6.19l-1.363 5.994h-4.418l5.88-23.84h5.99l5.89 23.85h-4.44zm-2.193-9.907l-1.267-5.523c-.076-.336-.246-1.178-.512-2.526-.266-1.348-.425-2.25-.48-2.704-.14.93-.318 1.958-.535 3.078-.217 1.12-.78 3.68-1.69 7.676h4.484zm25.358 9.907h-5.394l-7.342-17.202h-.21c.27 1.31.405 2.718.405 4.224v12.98h-4.1V147.9h5.42l7.27 17.024h.18c-.21-1.137-.31-2.49-.31-4.06V147.9h4.06v23.75zm11.484 0h-4.402v-19.866h-4.548v-3.882h13.5v3.882h-4.55v19.867zm17.788 0h-10.705v-23.748h10.705v3.817h-6.287v5.65h5.832v3.83h-5.832v6.58h6.287v3.86zm14.164 0H207.84v-23.748h10.706v3.817h-6.286v5.65h5.832v3.83h-5.832v6.58h6.286v3.86z"/></svg>