<svg viewBox="0 0 190 220" xmlns="http://www.w3.org/2000/svg"><g fill="#055e82"><path d="M95 219.392l-95-54.85V54.847L95 0l95 54.848V164.54zM4.938 161.69l90.062 52 90.062-52V57.7L95 5.7l-90.062 52z"/><path d="M117.5 92.736c-4.106 0-8.044.738-11.688 2.085V82.1c0-14.847-12.08-26.926-26.926-26.926S51.96 67.248 51.96 82.092v51.348c0 14.845 12.08 26.924 26.926 26.924 6.68 0 13.142-2.524 18.07-6.982 5.7 4.374 12.822 6.982 20.545 6.982 18.65 0 33.82-15.17 33.82-33.815 0-18.65-15.17-33.82-33.81-33.82zm28.755 32.165H88.752c.003-.05.002-.1.006-.15.01-.18.027-.36.042-.55.035-.43.08-.86.134-1.28.024-.19.046-.38.073-.57.08-.54.173-1.08.28-1.61.053-.25.116-.5.175-.75.067-.29.137-.57.213-.86.086-.32.175-.64.272-.96.05-.16.104-.32.155-.48 1.836-5.65 5.372-10.54 10.005-14.06l.328-.24c.288-.21.58-.42.875-.62.364-.25.734-.49 1.11-.72.196-.12.395-.23.594-.35.386-.22.777-.44 1.177-.65 3.99-2.09 8.51-3.27 13.32-3.27 15.33.01 27.9 12.04 28.76 27.16zm-67.37-64.72c12.086 0 21.917 9.84 21.917 21.92v15.05c-.144.08-.28.18-.42.26-.304.18-.602.36-.898.55-3.947 2.48-7.277 5.69-9.843 9.41H56.97V82.09c0-12.085 9.83-21.916 21.916-21.916zm0 95.18c-12.084 0-21.915-9.83-21.915-21.91v-23.57h31.103c-1.15 2.03-2.084 4.19-2.794 6.43-.06.17-.11.34-.16.51-.12.41-.24.81-.35 1.22-.09.33-.16.67-.24 1.01-.11.45-.2.91-.28 1.36-.09.44-.16.89-.23 1.33-.04.25-.07.5-.1.75-.06.46-.1.92-.14 1.39-.02.22-.04.44-.05.66-.04.68-.07 1.37-.07 2.05 0 .57.01 1.12.04 1.68.01.33.04.66.07.99.01.22.02.44.05.66.04.43.1.86.15 1.286.01.105.02.215.04.323.07.486.15.964.24 1.44l.03.15c.1.507.21 1.01.33 1.51l.01.06c.12.51.26 1.01.41 1.507l.01.06c.15.49.3.975.47 1.455l.03.096c.16.458.33.91.51 1.356l.07.19c.164.41.34.818.523 1.22l.14.318c.163.35.335.7.51 1.05.08.15.155.306.235.457.153.29.314.58.48.87.112.2.23.41.35.61.14.23.28.45.42.68.16.25.32.503.483.752.117.17.23.34.35.51.208.297.41.59.628.88l.27.356c.25.33.505.65.767.97.06.08.13.16.192.235.29.35.582.69.89 1.027.042.056.09.107.14.16.2.224.4.45.61.67-3.95 3.4-9.044 5.31-14.3 5.31zm38.616 0c-7.41 0-14.18-2.82-19.3-7.44l-.22-.21c-.28-.26-.55-.52-.82-.79l-.05-.05c-.87-.87-1.68-1.81-2.44-2.79-.08-.11-.17-.21-.25-.32-.15-.2-.29-.4-.43-.61-.14-.2-.29-.4-.42-.61-.11-.16-.21-.33-.32-.5-.16-.25-.33-.51-.48-.78-.08-.13-.15-.27-.23-.4-.17-.3-.34-.61-.51-.93l-.16-.31c-.18-.35-.35-.71-.52-1.07l-.1-.23c-.17-.39-.34-.79-.5-1.19l-.06-.15c-.16-.43-.32-.86-.47-1.3l-.03-.09c-.15-.45-.29-.91-.41-1.38l-.02-.05c-.13-.47-.243-.946-.35-1.424 0-.014-.01-.03-.01-.05-.1-.47-.19-.94-.27-1.42l-.013-.08c-.077-.454-.137-.913-.19-1.373-.004-.05-.012-.096-.02-.146-.045-.434-.077-.873-.104-1.312 0-.07-.01-.14-.012-.22-.01-.22-.01-.44-.02-.67h57.57c-.46 15.49-13.19 27.95-28.785 27.95z"/></g></svg>