<svg id="Layer_1" xmlns="http://www.w3.org/2000/svg" viewBox="0 0 200 200"><style>.st0{fill:#007FB3;}</style><path d="M169.23 65.387c0 .407-.104.815-.315 1.18L153.53 93.21c-.42.73-1.2 1.18-2.042 1.18H120.72c-.843 0-1.62-.45-2.043-1.18l-15.384-26.646c-.42-.73-.42-1.63 0-2.36l15.384-26.645c.42-.73 1.2-1.18 2.043-1.18h30.77c.842 0 1.62.45 2.042 1.18l15.384 26.64c.21.36.315.77.315 1.18zm-19.104 24.287l14.022-24.288-14.022-24.288H122.08l-14.02 24.288 14.02 24.288h28.046z"/><path d="M169.23 65.387c0 .407-.104.815-.315 1.18L153.53 93.21c-.42.73-1.2 1.18-2.042 1.18-.843 0-1.62-.45-2.043-1.18L134.06 66.566c-.42-.73-.42-1.63 0-2.36l15.385-26.645c.42-.73 1.2-1.17 2.043-1.17.843 0 1.62.45 2.043 1.18l15.39 26.65c.21.37.32.77.32 1.18zm-17.74 21.928l12.66-21.93-12.66-21.928-12.66 21.93 12.66 21.928z"/><path d="M138.463 65.387c0 1.303-1.056 2.36-2.36 2.36h-30.768c-1.303 0-2.36-1.057-2.36-2.36s1.057-2.36 2.36-2.36h30.77c1.302 0 2.358 1.057 2.358 2.36z"/><path d="M184.616 92.033c0 .407-.105.815-.316 1.18l-15.384 26.645c-.42.73-1.2 1.18-2.043 1.18h-30.77c-.842 0-1.62-.45-2.042-1.18l-15.38-26.646c-.42-.73-.42-1.63 0-2.36l15.39-26.645c.42-.73 1.2-1.18 2.05-1.18h30.77c.84 0 1.62.45 2.04 1.18l15.38 26.647c.21.364.32.772.32 1.18zM165.51 116.32l14.023-24.287-14.022-24.288h-28.04l-14.02 24.288 14.02 24.287h28.05z"/><path d="M184.616 92.033c0 .407-.105.815-.316 1.18l-15.384 26.645c-.42.73-1.2 1.18-2.043 1.18-.843 0-1.62-.45-2.043-1.18l-15.384-26.646c-.42-.73-.42-1.63 0-2.36l15.384-26.645c.42-.73 1.2-1.18 2.043-1.18.843 0 1.62.45 2.043 1.18L184.3 90.854c.21.364.316.772.316 1.18zm-17.743 21.93l12.66-21.93-12.66-21.93-12.66 21.93 12.66 21.93z"/><path d="M153.847 92.033c0 1.303-1.056 2.36-2.36 2.36H120.72c-1.303 0-2.36-1.057-2.36-2.36s1.057-2.36 2.36-2.36h30.77c1.3 0 2.357 1.057 2.357 2.36z"/><path d="M200 118.68c0 .406-.105.814-.316 1.178L184.3 146.505c-.42.73-1.2 1.18-2.043 1.18h-30.77c-.842 0-1.62-.45-2.042-1.18L134.06 119.86c-.42-.73-.42-1.63 0-2.36l15.385-26.646c.42-.73 1.2-1.18 2.043-1.18h30.77c.842 0 1.62.45 2.042 1.18l15.384 26.646c.21.365.316.772.316 1.18zm-19.105 24.287l14.023-24.288-14.023-24.29H152.85l-14.022 24.28 14.022 24.28h28.045z"/><path d="M200 118.68c0 .406-.105.814-.316 1.178L184.3 146.505c-.42.73-1.2 1.18-2.043 1.18-.843 0-1.62-.45-2.043-1.18L164.83 119.86c-.42-.73-.42-1.63 0-2.36l15.384-26.646c.42-.73 1.2-1.18 2.043-1.18.843 0 1.62.45 2.043 1.18l15.384 26.646c.21.365.316.772.316 1.18zm-17.743 21.928l12.66-21.93-12.66-21.928-12.66 21.93 12.66 21.928z"/><path d="M169.23 118.68c0 1.302-1.055 2.358-2.358 2.358h-30.77c-1.302 0-2.358-1.056-2.358-2.36 0-1.302 1.056-2.358 2.36-2.358h30.768c1.303 0 2.36 1.057 2.36 2.36zm-30.767-53.293c0 .407-.105.815-.316 1.18L122.763 93.21c-.42.73-1.2 1.18-2.043 1.18H89.95c-.842 0-1.62-.45-2.042-1.18L72.524 66.566c-.42-.73-.42-1.63 0-2.36L87.908 37.56c.42-.73 1.2-1.177 2.043-1.177h30.77c.85 0 1.62.45 2.05 1.18l15.39 26.645c.21.365.32.772.32 1.18zm-19.105 24.287l14.022-24.288-14.022-24.288H91.313L77.29 65.388l14.024 24.287h28.044z"/><path d="M138.463 65.387c0 .407-.105.815-.316 1.18L122.763 93.21c-.42.73-1.2 1.18-2.043 1.18-.843 0-1.62-.45-2.043-1.18l-15.384-26.646c-.42-.73-.42-1.63 0-2.36l15.384-26.645c.42-.73 1.2-1.18 2.043-1.18.843 0 1.62.45 2.043 1.18l15.384 26.64c.21.36.316.77.316 1.18zM120.72 87.315l12.66-21.93-12.66-21.927-12.66 21.93 12.66 21.927z"/><path d="M107.694 65.387c0 1.303-1.056 2.36-2.36 2.36H74.568c-1.303 0-2.36-1.057-2.36-2.36s1.057-2.36 2.36-2.36h30.77c1.3 0 2.357 1.057 2.357 2.36z"/><path class="st0" d="M52.192 54.48c0 .4-.102.806-.316 1.177L36.49 82.304c-.65 1.128-2.093 1.515-3.22.863-1.13-.65-1.516-2.094-.864-3.222L47.79 53.298c.65-1.128 2.094-1.515 3.222-.863.757.437 1.18 1.23 1.18 2.045zm30.768 53.293c0 .4-.102.806-.316 1.177L67.26 135.596c-.65 1.128-2.094 1.515-3.222.863-1.128-.66-1.515-2.1-.863-3.23l15.385-26.64c.65-1.13 2.093-1.52 3.22-.87.757.43 1.18 1.23 1.18 2.04zm30.77 0c0 .4-.103.806-.317 1.177L98.03 135.596c-.652 1.128-2.095 1.515-3.223.863-1.128-.66-1.515-2.1-.863-3.23l15.384-26.65c.65-1.13 2.094-1.52 3.222-.87.756.434 1.18 1.23 1.18 2.043z"/><path class="st0" d="M36.807 81.124c0 1.303-1.056 2.36-2.36 2.36H3.68c-1.303 0-2.36-1.057-2.36-2.36s1.057-2.36 2.36-2.36h30.77c1.3 0 2.357 1.057 2.357 2.36zm76.923 79.936c0 .816-.424 1.61-1.18 2.046-1.13.65-2.572.265-3.223-.863l-15.384-26.646c-.652-1.128-.265-2.57.863-3.222 1.128-.65 2.57-.265 3.222.863l15.384 26.646c.215.37.317.777.317 1.177zm-29.45.003c0 2.032-1.646 3.68-3.68 3.68H49.834c-1.315 0-2.53-.7-3.187-1.84l-15.384-26.646c-1.016-1.76-.413-4.01 1.347-5.027 1.76-1.016 4.01-.413 5.026 1.347l14.322 24.807h28.644c2.03 0 3.68 1.647 3.68 3.68zm-16.704-26.648c0 .815-.423 1.608-1.18 2.045-1.128.65-2.57.265-3.222-.863L47.79 108.95c-.65-1.128-.265-2.57.863-3.222 1.128-.65 2.57-.265 3.222.864l15.384 26.646c.21.37.31.776.31 1.177z"/><path class="st0" d="M53.513 161.06c0 1.272-.66 2.51-1.84 3.19-1.76 1.016-4.01.413-5.027-1.347l-15.384-26.646c-1.016-1.76-.413-4.01 1.347-5.027 1.76-1.016 4.01-.413 5.02 1.347l15.38 26.646c.33.58.49 1.212.49 1.837z"/><path class="st0" d="M67.576 134.42c0 .4-.102.805-.316 1.176l-15.384 26.646c-.65 1.128-2.094 1.515-3.222.863-1.128-.65-1.515-2.094-.863-3.222l15.39-26.646c.65-1.128 2.1-1.515 3.22-.863.76.437 1.18 1.23 1.18 2.045z"/><path class="st0" d="M98.344 134.417c0 1.303-1.056 2.36-2.36 2.36H65.218c-1.303 0-2.36-1.057-2.36-2.36s1.057-2.36 2.36-2.36h30.77c1.3 0 2.357 1.057 2.357 2.36zm-61.537-.002c0 .815-.423 1.608-1.18 2.045-1.128.65-2.57.265-3.222-.863L17.02 108.95c-.65-1.128-.264-2.57.864-3.222 1.128-.65 2.57-.265 3.222.864l15.384 26.646c.216.37.317.776.317 1.177zm47.475-26.648c0 1.272-.66 2.51-1.84 3.19-1.76 1.016-4.01.413-5.028-1.347L62.03 82.964c-1.016-1.76-.413-4.01 1.347-5.027 1.76-1.016 4.01-.413 5.027 1.347l15.384 26.646c.334.58.494 1.213.494 1.837z"/><path class="st0" d="M38.13 134.413c0 1.272-.66 2.51-1.842 3.19-1.76 1.016-4.01.413-5.027-1.347L15.88 109.61c-1.016-1.76-.413-4.01 1.347-5.027 1.76-1.016 4.01-.413 5.027 1.347l15.385 26.646c.33.58.49 1.213.49 1.837zm14.062-26.645c0 .815-.423 1.608-1.18 2.045-1.128.65-2.57.265-3.222-.863L32.406 82.303c-.652-1.128-.265-2.57.863-3.222 1.12-.65 2.57-.26 3.22.87l15.38 26.65c.21.38.31.78.31 1.18z"/><path class="st0" d="M68.897 81.12c0 1.273-.66 2.51-1.84 3.19-1.76 1.017-4.01.414-5.027-1.346L47.708 58.157h-26.52L7.928 81.124 22.25 105.93c1.018 1.76.415 4.01-1.345 5.027-1.76 1.016-4.01.413-5.027-1.347L.493 82.964c-.658-1.14-.657-2.54 0-3.68l15.384-26.646c.657-1.138 1.872-1.84 3.187-1.84h30.77c1.314 0 2.528.7 3.186 1.84l15.384 26.646c.334.58.493 1.212.493 1.837z"/><path class="st0" d="M22.744 54.48c0 .625-.16 1.258-.494 1.837L7.93 81.124l14.32 24.806c1.017 1.76.414 4.01-1.346 5.027-1.76 1.016-4.01.413-5.027-1.347L.493 82.964c-.657-1.138-.657-2.54 0-3.68l15.384-26.646c1.016-1.76 3.267-2.363 5.027-1.347 1.18.69 1.84 1.92 1.84 3.19zm107.69 79.937c0 .635-.164 1.27-.493 1.84l-15.38 26.646c-.65 1.138-1.87 1.84-3.18 1.84H80.6c-2.03 0-3.68-1.647-3.68-3.68 0-2.032 1.648-3.68 3.68-3.68h28.645l13.26-22.967-13.26-22.967H80.6c-2.03 0-3.68-1.65-3.68-3.68 0-2.04 1.648-3.68 3.68-3.68h30.77c1.315 0 2.53.7 3.187 1.84l15.384 26.64c.33.57.5 1.2.5 1.84z"/><path class="st0" d="M129.113 134.417c0 1.303-1.056 2.36-2.36 2.36H95.986c-1.303 0-2.36-1.057-2.36-2.36s1.057-2.36 2.36-2.36h30.77c1.302 0 2.358 1.057 2.358 2.36z"/></svg>