<svg xmlns="http://www.w3.org/2000/svg" viewBox="0 0 100 100"><g fill="#FFF"><path d="M58.68 100c-.872 0-1.635-.64-1.764-1.53L54.47 81.62c-.08-.552.104-1.11.495-1.508.39-.398.946-.59 1.5-.52l9.517 1.223c2.95-.028 5.727-1.2 7.833-3.305 2.132-2.132 3.306-4.953 3.306-7.943V55.215c0-.986.8-1.785 1.79-1.785h6.118C80.73 40.647 74.71 22.995 73.798 21.172 71.2 15.976 67.23 11.582 62.31 8.464 57.26 5.262 51.43 3.57 45.46 3.57c-4.965 0-9.726 1.13-14.15 3.36-6.028 3.036-10.8 7.897-13.797 14.056-1.456 2.99-2.433 6.184-2.904 9.492-.48 3.366-.43 6.773.16 10.128l3.633 17.44c.024.116.037.234.04.352l.27 39.805c.007.986-.787 1.79-1.77 1.797-.986.008-1.79-.787-1.8-1.772L14.88 58.6l-3.605-17.29-.01-.052c-.66-3.736-.725-7.53-.19-11.28.523-3.676 1.61-7.226 3.228-10.55 1.628-3.345 3.754-6.38 6.32-9.018 2.642-2.72 5.697-4.96 9.08-6.666C34.63 1.26 39.933 0 45.46 0c6.65 0 13.138 1.884 18.76 5.45 5.467 3.465 9.882 8.35 12.768 14.127 1.392 2.786 11.1 31.776 12.202 35.072.182.54.09 1.14-.244 1.6-.335.465-.874.74-1.448.74H80.69v12.57c0 8.17-6.647 14.817-14.818 14.817-.076 0-.152-.005-.227-.015l-7.305-.938 2.108 14.525c.142.973-.534 1.88-1.51 2.02-.087.012-.173.02-.258.02z"/><path d="M65.872 84.386c-.076 0-.152-.005-.227-.015L39.7 81.04c-.978-.127-1.668-1.02-1.543-1.998.126-.978 1.02-1.668 1.997-1.543l25.826 3.31c2.95-.03 5.73-1.2 7.838-3.31 2.132-2.13 3.306-4.952 3.306-7.942V55.21c0-.985.8-1.784 1.786-1.784h6.112C80.73 40.646 74.71 22.994 73.8 21.17c-2.596-5.196-6.568-9.59-11.486-12.708C57.26 5.262 51.43 3.57 45.46 3.57c-4.965 0-9.726 1.13-14.15 3.36-6.028 3.036-10.8 7.897-13.797 14.056-1.456 2.99-2.433 6.184-2.904 9.492-.49 3.375-.43 6.79.17 10.155.17.97-.48 1.896-1.45 2.068-.97.18-1.9-.47-2.07-1.44-.66-3.733-.728-7.53-.19-11.28.52-3.673 1.61-7.223 3.23-10.55 1.63-3.342 3.75-6.38 6.32-9.02 2.64-2.72 5.693-4.96 9.08-6.66C34.63 1.26 39.93 0 45.46 0c6.65 0 13.138 1.884 18.76 5.45 5.467 3.465 9.882 8.35 12.77 14.127 1.39 2.786 11.098 31.776 12.2 35.072.183.54.092 1.14-.243 1.6-.335.465-.874.74-1.448.74h-6.81v12.57c0 8.17-6.65 14.82-14.82 14.82z"/></g><path d="M47.23 15.602c-1.123 0-2.037-.914-2.037-2.038 0-1.124.914-2.038 2.038-2.038 1.13 0 2.04.914 2.04 2.038 0 1.124-.91 2.038-2.04 2.038zm0-2.288c-.137 0-.25.112-.25.25s.113.25.25.25c.14 0 .25-.112.25-.25s-.112-.25-.25-.25zm1.22 20.29c-1.124 0-2.038-.915-2.038-2.04 0-1.123.914-2.037 2.038-2.037 1.124 0 2.038.914 2.038 2.038 0 1.124-.914 2.038-2.038 2.038zm0-2.29c-.138 0-.25.113-.25.25s.112.25.25.25.25-.11.25-.25-.112-.25-.25-.25zm4.6-15.034c-1.123 0-2.037-.915-2.037-2.04 0-1.123.914-2.037 2.038-2.037 1.13 0 2.04.914 2.04 2.038 0 1.13-.91 2.04-2.04 2.04zm0-2.29c-.137 0-.25.113-.25.25s.113.25.25.25c.14 0 .25-.11.25-.25s-.11-.25-.25-.25zm9.106 5.565c-1.124 0-2.038-.914-2.038-2.038 0-1.124.914-2.038 2.038-2.038 1.124 0 2.038.91 2.038 2.03 0 1.12-.914 2.04-2.038 2.04zm0-2.288c-.138 0-.25.112-.25.25s.112.25.25.25.25-.112.25-.25-.112-.25-.25-.25zM25.09 36.07c-1.124 0-2.038-.914-2.038-2.038 0-1.124.914-2.038 2.038-2.038 1.124 0 2.038.914 2.038 2.038 0 1.124-.914 2.038-2.038 2.038zm0-2.288c-.138 0-.25.112-.25.25s.112.25.25.25.25-.112.25-.25-.112-.25-.25-.25z" fill="#FFF"/><g fill="#FFF"><path d="M29.844 19.128c-1.124 0-2.038-.914-2.038-2.038s.914-2.038 2.038-2.038c1.124 0 2.038.914 2.038 2.038s-.914 2.038-2.038 2.038zm0-2.288c-.138 0-.25.112-.25.25s.112.25.25.25.25-.112.25-.25-.113-.25-.25-.25z"/><path d="M20.426 43.257c-.632 0-1.144-.512-1.144-1.144v-9.438c0-.303.12-.594.334-.808l9.084-9.1v-4.782c0-.632.512-1.144 1.144-1.144.632 0 1.144.52 1.144 1.15v5.26c0 .303-.12.594-.334.81l-9.084 9.1v8.963c0 .63-.512 1.144-1.144 1.144z"/></g><path d="M20.417 27.02c-.293 0-.586-.11-.81-.334-.446-.447-.446-1.17 0-1.618l6.673-6.672c.447-.447 1.17-.447 1.618 0 .447.447.447 1.17 0 1.618l-6.672 6.672c-.224.224-.516.335-.81.335z" fill="#FFF"/><g fill="#FFF"><path d="M34.366 17.868c-1.124 0-2.038-.914-2.038-2.038 0-1.124.914-2.038 2.038-2.038 1.124 0 2.038.914 2.038 2.038 0 1.124-.914 2.038-2.038 2.038zm0-2.288c-.138 0-.25.112-.25.25s.112.25.25.25.25-.112.25-.25-.112-.25-.25-.25z"/><path d="M25.838 34.505c-.284 0-.57-.105-.79-.317-.457-.437-.473-1.16-.036-1.617l8.21-8.58v-7.26c0-.63.513-1.14 1.145-1.14s1.144.513 1.144 1.145v7.72c0 .295-.11.578-.31.79l-8.53 8.918c-.222.235-.523.353-.83.353z"/></g><path d="M29.715 40.106h-5.087c-.632 0-1.144-.512-1.144-1.144 0-.632.512-1.144 1.144-1.144h3.943v-3.89c0-.633.52-1.145 1.15-1.145s1.148.512 1.148 1.144v5.035c0 .632-.513 1.144-1.144 1.144z" fill="#FFF"/><path d="M29.67 44.428h-5.043c-.632 0-1.144-.512-1.144-1.144 0-.632.512-1.144 1.144-1.144h4.58l4.014-3.88v-8.32c0-.633.52-1.145 1.15-1.145s1.148.512 1.148 1.144v8.8c0 .31-.126.603-.35.82L30.47 44.1c-.212.207-.497.32-.794.32z" fill="#FFF"/><path d="M35.162 48.26h-13.25c-.632 0-1.144-.51-1.144-1.143 0-.632.512-1.144 1.144-1.144h12.776l3-3V14.42c0-.632.51-1.144 1.143-1.144s1.15.512 1.15 1.144v29.03c0 .303-.12.594-.33.81l-3.67 3.668c-.214.214-.504.335-.808.335z" fill="#FFF"/><path d="M39.276 66.452c-.632 0-1.144-.512-1.144-1.144V52.355c0-.307.124-.602.343-.817l3.92-3.843V13.61c0-.633.513-1.145 1.145-1.145s1.144.512 1.144 1.144v34.56c0 .302-.124.6-.343.812l-3.92 3.843V65.3c0 .632-.51 1.144-1.14 1.144zm9.044-17.54c-.63 0-1.143-.51-1.143-1.143V37.41c0-.304.12-.596.337-.81l4.472-4.45v-12.5l-4.827-4.44c-.47-.43-.5-1.152-.07-1.617.43-.465 1.15-.495 1.61-.067l5.195 4.78c.235.217.37.522.37.842v13.48c0 .305-.12.597-.338.812l-4.473 4.448v9.882c0 .63-.51 1.143-1.14 1.143zM35.65 66.446c-.63 0-1.143-.512-1.143-1.144V50.788c0-.632.512-1.144 1.144-1.144.64 0 1.15.512 1.15 1.144V65.3c0 .633-.51 1.145-1.14 1.145z" fill="#FFF"/><path d="M48.45 31.814c-.632 0-1.144-.512-1.144-1.144V19.232c0-.632.512-1.144 1.144-1.144.632 0 1.144.512 1.144 1.144V30.67c0 .632-.512 1.144-1.144 1.144zm4.522 16c-.632 0-1.144-.513-1.144-1.145v-7.5c0-.308.12-.6.335-.81l4.317-4.32V15.27c0-.632.512-1.144 1.144-1.144.632 0 1.144.512 1.144 1.144v19.252c0 .303-.12.594-.335.81l-4.317 4.315v7.02c0 .63-.512 1.142-1.144 1.142z" fill="#FFF"/><path d="M55.686 43.55c-.287 0-.574-.107-.796-.323-.454-.44-.465-1.164-.025-1.618l2.39-2.47c.215-.22.512-.35.82-.35h6.698l5.777-5.78v-7.18c0-.636.512-1.148 1.144-1.148.632 0 1.144.512 1.144 1.144v7.655c0 .304-.12.595-.335.81l-6.447 6.45c-.215.216-.506.336-.81.336H58.56l-2.053 2.12c-.224.237-.523.35-.82.35z" fill="#FFF"/><path d="M59.056 37.825c-.293 0-.586-.112-.81-.335-.446-.447-.446-1.17 0-1.618l2.766-2.765V18.41c0-.63.512-1.143 1.144-1.143.632 0 1.144.512 1.144 1.144v15.17c0 .31-.12.6-.335.81l-3.1 3.1c-.224.23-.516.34-.81.34zm8.004-3.1c-.632 0-1.144-.512-1.144-1.144v-11.9c0-.63.512-1.14 1.144-1.14.632 0 1.144.514 1.144 1.146v11.9c0 .633-.512 1.146-1.144 1.146z" fill="#FFF"/></svg>