<svg xmlns="http://www.w3.org/2000/svg" viewBox="0 0 100 100"><g fill="#FFF"><path d="M50.547 66.256c-.647 0-1.17-.524-1.17-1.17V31c0-.647.523-1.17 1.17-1.17.647 0 1.17.523 1.17 1.17v34.083c0 .647-.523 1.17-1.17 1.17z"/><path d="M69.254 36.87c-.253 0-.51-.052-.754-.163-.92-.417-1.326-1.5-.91-2.42.47-1.033.708-2.14.708-3.285 0-4.39-3.572-7.962-7.962-7.962s-7.962 3.572-7.962 7.962c0 1.01-.818 1.827-1.827 1.827-1.01 0-1.827-.82-1.827-1.83 0-6.41 5.21-11.62 11.617-11.62 6.406 0 11.617 5.21 11.617 11.613 0 1.67-.348 3.285-1.034 4.797-.307.674-.97 1.07-1.666 1.07z"/><path d="M65.493 60.437c-.568 0-1.067-.415-1.156-.994-.098-.64.34-1.237.98-1.336 7.378-1.132 12.46-8.056 11.326-15.434-.648-4.222-3.176-7.813-6.936-9.85-.57-.31-.78-1.02-.47-1.59.307-.568 1.02-.778 1.587-.47 2.108 1.143 3.96 2.775 5.353 4.72 1.462 2.038 2.398 4.338 2.78 6.835 1.33 8.655-4.63 16.776-13.285 18.105-.06.01-.12.014-.18.014z"/><path d="M61.58 75.705c-.61 0-1.124-.472-1.167-1.09-.045-.645.442-1.205 1.087-1.25 2-.14 3.956-.79 5.656-1.878 2.42-1.55 4.21-3.916 5.04-6.662.822-2.717.662-5.642-.45-8.235-.254-.595.022-1.283.617-1.538.595-.255 1.283.02 1.538.616 1.33 3.1 1.52 6.592.54 9.836-.99 3.28-3.13 6.106-6.02 7.957-2.03 1.3-4.36 2.08-6.75 2.25h-.08z"/><path d="M58.465 79.96c-5.012 0-9.09-4.08-9.09-9.09V54.503c0-.647.524-1.17 1.17-1.17.648 0 1.172.523 1.172 1.17V70.87c0 3.72 3.027 6.746 6.747 6.746 2.58 0 4.972-1.515 6.093-3.86.28-.583.98-.83 1.562-.55.58.28.83.98.55 1.562-1.51 3.153-4.73 5.19-8.21 5.19zm6.013-46.796c-.647 0-1.17-.524-1.17-1.17 0-2.597-2.113-4.71-4.71-4.71-.647 0-1.17-.524-1.17-1.17 0-.648.523-1.172 1.17-1.172 3.888 0 7.05 3.163 7.05 7.05 0 .648-.523 1.172-1.17 1.172z"/><path d="M55.346 60.445c-.63 0-1.15-.5-1.17-1.135-.096-3.105 1.81-5.87 4.744-6.885.612-.21 1.278.113 1.49.725.21.61-.113 1.278-.725 1.49-1.96.677-3.23 2.524-3.167 4.598.02.647-.488 1.187-1.134 1.207h-.038zm5.404 10.138c-.944 0-1.88-.236-2.73-.702-1.213-.66-2.144-1.73-2.623-3.03-.224-.6.086-1.28.693-1.5.607-.222 1.28.088 1.505.695.282.763.83 1.4 1.547 1.79.79.43 1.703.53 2.567.275.86-.254 1.57-.83 2.01-1.62.31-.568 1.02-.777 1.58-.467.57.31.776 1.02.466 1.59-.73 1.34-1.94 2.314-3.406 2.744-.534.158-1.08.236-1.62.236z"/><path d="M55.45 71.087c-.646 0-1.17-.524-1.17-1.17 0-3.737 2.53-6.967 6.156-7.855.63-.154 1.262.23 1.417.86.154.627-.23 1.262-.86 1.415-2.572.63-4.37 2.925-4.37 5.58 0 .646-.525 1.17-1.172 1.17zm1.283-22.105c-.294 0-.588-.11-.815-.33-.465-.45-.476-1.192-.026-1.656.665-.687 1.442-2.394 1.442-4.947 0-1.82-.423-3.53-1.13-4.57-.366-.535-.23-1.264.305-1.63.53-.365 1.26-.23 1.62.306.98 1.43 1.54 3.576 1.54 5.883 0 2.76-.788 5.22-2.105 6.577-.23.238-.535.357-.84.357z"/><path d="M58.587 42.89c-.632 0-1.152-.503-1.17-1.138-.018-.647.49-1.186 1.138-1.204.82-.023 1.484-.97 1.453-2.067-.018-.64.49-1.18 1.138-1.2.645-.01 1.186.49 1.204 1.14.068 2.41-1.605 4.42-3.73 4.48h-.033zm7.217 10.863c-.653 0-1.313-.08-1.967-.242-.628-.15-1.01-.79-.854-1.41.156-.63.79-1.01 1.42-.853 2.254.56 4.612-.277 6.007-2.135 1.91-2.543 1.393-6.165-1.15-8.075-.517-.39-.622-1.125-.233-1.64.388-.52 1.122-.624 1.64-.235 3.576 2.683 4.3 7.776 1.617 11.352-1.557 2.07-3.967 3.24-6.48 3.24z"/><path d="M71.235 49.98c-1.122 0-2.193-.344-3.044-.983-.98-.74-1.56-1.785-1.62-2.938-.033-.65.46-1.2 1.108-1.24.645-.037 1.198.46 1.233 1.103.024.45.27.872.696 1.19.486.366 1.128.547 1.81.51.643-.034 1.197.46 1.23 1.106.037.646-.46 1.2-1.104 1.233-.1.006-.2.01-.3.01z"/><path d="M58.465 81.446c-5.832 0-10.577-4.745-10.577-10.577V31c0-6.864 5.584-12.448 12.448-12.448 6.59 0 12.002 5.15 12.422 11.635 1.798 1.176 3.384 2.692 4.628 4.426 1.6 2.23 2.624 4.747 3.043 7.477.7 4.585-.42 9.17-3.17 12.91-.44.592-.91 1.157-1.41 1.69.91 2.99.92 6.228.01 9.24-1.1 3.62-3.458 6.738-6.64 8.78-.39.25-.8.485-1.21.7-.85 1.775-2.18 3.277-3.83 4.347-1.71 1.103-3.69 1.686-5.72 1.686zm1.87-59.237c-4.848 0-8.792 3.94-8.792 8.79v39.87c0 3.81 3.105 6.92 6.922 6.92 1.326 0 2.618-.38 3.734-1.1 1.02-.67 1.85-1.58 2.41-2.66.04-.667.44-1.27 1.07-1.556.54-.245 1.07-.53 1.56-.848 2.455-1.573 4.27-3.974 5.113-6.76.792-2.624.68-5.468-.315-8.008-.277-.704-.09-1.504.465-2.014.66-.607 1.267-1.284 1.803-2.015 2.166-2.955 3.053-6.575 2.5-10.195-.33-2.155-1.14-4.14-2.4-5.9-1.14-1.594-2.65-2.953-4.37-3.93-.58-.33-.934-.957-.92-1.626l.003-.186c0-4.848-3.946-8.793-8.794-8.793z"/><path d="M49.453 66.256c-.647 0-1.17-.524-1.17-1.17V31c0-.647.523-1.17 1.17-1.17.647 0 1.17.523 1.17 1.17v34.083c.002.647-.523 1.17-1.17 1.17z"/><path d="M30.745 36.215c-.445 0-.87-.255-1.067-.688-.647-1.426-.975-2.95-.975-4.526 0-6.04 4.917-10.96 10.96-10.96 6.045 0 10.962 4.92 10.962 10.96 0 .65-.524 1.18-1.17 1.18-.648 0-1.172-.523-1.172-1.17 0-4.752-3.866-8.62-8.618-8.62-4.752 0-8.618 3.868-8.618 8.62 0 1.24.258 2.438.766 3.557.267.59.006 1.283-.583 1.55-.158.074-.323.107-.485.107z"/><path d="M34.507 60.437c-.06 0-.12-.004-.18-.014-8.654-1.33-14.614-9.45-13.285-18.105.383-2.497 1.32-4.797 2.78-6.836 1.395-1.944 3.246-3.576 5.354-4.72.57-.307 1.28-.096 1.588.472.308.57.097 1.28-.47 1.588-3.76 2.04-6.29 5.63-6.937 9.85-1.132 7.38 3.948 14.302 11.326 15.435.64.098 1.078.696.98 1.336-.09.58-.588.994-1.156.994z"/><path d="M38.42 75.705c-.027 0-.055 0-.083-.003-2.39-.167-4.727-.942-6.757-2.242-2.89-1.85-5.027-4.677-6.02-7.957-.98-3.244-.79-6.737.54-9.836.254-.595.942-.87 1.537-.616.595.26.87.95.616 1.54-1.11 2.6-1.27 5.52-.45 8.24.83 2.75 2.62 5.116 5.04 6.66 1.7 1.09 3.657 1.74 5.657 1.88.645.047 1.132.607 1.087 1.25-.042.62-.557 1.09-1.167 1.09z"/><path d="M41.535 79.96c-3.477 0-6.698-2.038-8.206-5.19-.28-.585-.04-1.284.55-1.563.58-.28 1.28-.032 1.56.55 1.12 2.345 3.51 3.86 6.09 3.86 3.72 0 6.743-3.027 6.743-6.747V54.504c0-.647.524-1.17 1.17-1.17.65 0 1.172.523 1.172 1.17V70.87c0 5.01-4.078 9.09-9.09 9.09zm-6.013-46.796c-.647 0-1.17-.524-1.17-1.17 0-3.89 3.162-7.052 7.05-7.052.647 0 1.17.524 1.17 1.17 0 .648-.523 1.172-1.17 1.172-2.596 0-4.71 2.112-4.71 4.71 0 .646-.523 1.17-1.17 1.17z"/><path d="M44.654 60.445h-.037c-.647-.02-1.155-.562-1.134-1.208.064-2.073-1.208-3.92-3.167-4.598-.61-.22-.936-.88-.725-1.49.22-.62.88-.94 1.49-.73 2.94 1.01 4.84 3.78 4.75 6.88-.02.634-.54 1.135-1.17 1.135zM39.252 70.58c-2.025 0-3.99-1.078-5.026-2.977-.31-.568-.1-1.28.467-1.59.568-.31 1.28-.1 1.59.468.89 1.64 2.943 2.24 4.576 1.35.71-.39 1.26-1.022 1.54-1.79.22-.602.9-.912 1.502-.69.607.226.917.9.693 1.507-.478 1.294-1.41 2.37-2.62 3.033-.87.474-1.806.7-2.73.7z"/><path d="M44.55 71.087c-.648 0-1.172-.524-1.172-1.17 0-2.655-1.797-4.95-4.37-5.58-.63-.154-1.014-.788-.86-1.416.154-.62.788-1.01 1.416-.85 3.624.89 6.156 4.12 6.156 7.855 0 .647-.524 1.17-1.17 1.17zm-1.283-22.105c-.306 0-.612-.12-.84-.356-1.317-1.36-2.103-3.818-2.103-6.578 0-2.308.56-4.452 1.54-5.883.365-.534 1.094-.67 1.628-.306.534.36.67 1.09.306 1.62-.708 1.034-1.13 2.74-1.13 4.56 0 2.552.776 4.26 1.44 4.95.45.462.44 1.203-.025 1.653-.23.222-.523.33-.816.33z"/><path d="M41.413 42.89h-.034c-2.13-.06-3.8-2.067-3.73-4.475.01-.647.55-1.157 1.2-1.138.642.018 1.15.557 1.14 1.204-.03 1.1.63 2.05 1.45 2.07.644.02 1.153.56 1.14 1.21-.02.636-.54 1.14-1.17 1.14zm-7.217 10.863c-2.514 0-4.923-1.17-6.48-3.244-2.685-3.58-1.96-8.67 1.617-11.36.517-.39 1.252-.288 1.64.23.388.516.284 1.25-.233 1.64-2.543 1.91-3.06 5.53-1.15 8.074 1.395 1.86 3.753 2.696 6.008 2.135.628-.156 1.263.226 1.42.854.155.63-.227 1.263-.855 1.42-.654.162-1.314.24-1.967.24z"/><path d="M28.765 49.98c-.1 0-.2-.003-.298-.008-.646-.035-1.14-.587-1.106-1.233.04-.65.59-1.14 1.24-1.11.68.03 1.326-.15 1.81-.51.426-.32.67-.74.697-1.19.035-.65.588-1.14 1.233-1.11.646.033 1.14.585 1.106 1.23-.064 1.153-.64 2.196-1.63 2.938-.85.64-1.923.982-3.045.982z"/><path d="M41.535 81.446c-2.03 0-4.008-.583-5.717-1.686-1.656-1.07-2.98-2.572-3.83-4.345-.414-.217-.818-.45-1.21-.702-3.187-2.042-5.545-5.16-6.64-8.78-.91-3.012-.902-6.25.007-9.24-.503-.533-.975-1.098-1.41-1.69-2.744-3.74-3.868-8.325-3.164-12.91.42-2.73 1.45-5.246 3.05-7.477 1.247-1.734 2.83-3.25 4.63-4.427.42-6.49 5.83-11.64 12.42-11.64 6.866 0 12.45 5.58 12.45 12.45v39.87c0 5.83-4.744 10.57-10.577 10.57zm-6.148-7.407c.56 1.07 1.39 1.98 2.414 2.65 1.12.72 2.41 1.1 3.74 1.1 3.82 0 6.92-3.11 6.92-6.92V31c0-4.85-3.94-8.793-8.79-8.793s-8.79 3.943-8.79 8.79c0 .064 0 .126.003.188.014.668-.34 1.29-.92 1.623-1.716.98-3.226 2.34-4.37 3.933-1.26 1.76-2.07 3.75-2.4 5.91-.555 3.62.333 7.24 2.5 10.193.536.73 1.14 1.408 1.8 2.014.556.51.74 1.31.465 2.014-.995 2.54-1.106 5.385-.313 8.01.845 2.786 2.66 5.187 5.116 6.76.497.317 1.024.602 1.566.847.625.284 1.03.89 1.07 1.557z"/></g><path d="M50.403 15.163h-.013c-.647-.007-1.165-.537-1.158-1.184l.143-12.83c.007-.64.54-1.16 1.185-1.15.646.005 1.164.535 1.157 1.182L51.574 14c-.008.644-.53 1.16-1.17 1.16zm-12.34 2.035c-.484 0-.937-.3-1.106-.783L32.707 4.32c-.214-.61.106-1.28.717-1.494.61-.215 1.28.106 1.493.717l4.25 12.096c.214.61-.106 1.27-.717 1.49-.128.04-.26.06-.388.06zm-10.9 6.132c-.34 0-.675-.147-.906-.43l-8.13-9.913c-.41-.5-.338-1.238.162-1.648.5-.41 1.23-.34 1.64.16l8.13 9.91c.41.5.34 1.24-.16 1.65-.22.18-.48.26-.74.26zm-8.147 9.49c-.203 0-.41-.054-.596-.165L7.39 26.12c-.558-.33-.742-1.047-.412-1.604.33-.557 1.048-.74 1.605-.41l11.03 6.533c.558.33.742 1.04.412 1.6-.22.37-.61.57-1.01.57zM14.61 44.523c-.072 0-.144-.007-.218-.02l-12.6-2.368c-.636-.12-1.054-.732-.935-1.368.12-.636.732-1.054 1.367-.935l12.6 2.368c.637.12 1.055.732.936 1.368-.106.562-.597.955-1.15.955zM1.817 59.113c-.563 0-1.06-.407-1.154-.98-.105-.64.327-1.242.965-1.347l12.65-2.085c.64-.1 1.242.33 1.347.97.105.64-.327 1.24-.965 1.35L2.01 59.1c-.066.01-.13.015-.193.015zm5.623 16c-.408 0-.806-.214-1.02-.596-.318-.564-.118-1.278.446-1.595l11.175-6.286c.57-.317 1.28-.117 1.6.447.32.564.12 1.278-.442 1.595l-11.18 6.285c-.18.102-.38.15-.573.15zm10.755 13.113c-.27 0-.54-.093-.762-.282-.49-.42-.547-1.16-.126-1.652l8.35-9.73c.422-.49 1.162-.546 1.653-.125.49.42.547 1.16.126 1.652l-8.35 9.72c-.233.27-.56.41-.89.41zm14.592 8.644c-.137 0-.277-.025-.413-.076-.605-.228-.91-.904-.683-1.51l4.52-11.997c.23-.605.91-.91 1.51-.683.61.228.91.904.69 1.51L33.89 96.11c-.177.47-.623.76-1.096.76zM49.455 100h-.013c-.647-.007-1.165-.537-1.158-1.184l.143-12.82c.007-.648.54-1.166 1.184-1.16.65.008 1.17.538 1.16 1.185l-.14 12.83c-.002.64-.53 1.16-1.17 1.16zm16.733-2.758c-.483 0-.936-.3-1.105-.783l-4.25-12.1c-.214-.61.106-1.28.717-1.5.61-.214 1.28.107 1.493.717l4.25 12.096c.214.61-.106 1.28-.717 1.492-.128.043-.26.064-.388.064zm14.782-8.315c-.34 0-.676-.146-.907-.43l-8.13-9.912c-.41-.5-.338-1.238.162-1.648.5-.41 1.238-.337 1.65.163l8.13 9.913c.41.5.337 1.238-.163 1.648-.218.18-.48.27-.743.27zm11.043-12.87c-.203 0-.41-.052-.596-.163l-11.03-6.534c-.558-.33-.742-1.048-.412-1.605.33-.557 1.048-.74 1.605-.41l11.03 6.533c.558.33.742 1.048.412 1.605-.22.37-.61.575-1.01.575zm5.98-15.87c-.072 0-.144-.006-.218-.02l-12.6-2.367c-.636-.12-1.054-.732-.935-1.368.12-.636.73-1.055 1.367-.935l12.6 2.367c.637.12 1.055.732.936 1.368-.105.563-.597.956-1.15.956zM85.53 45.317c-.564 0-1.06-.408-1.155-.98-.105-.64.327-1.243.965-1.348l12.65-2.09c.64-.108 1.242.324 1.347.962.105.637-.327 1.24-.965 1.345l-12.65 2.09c-.065.01-.13.014-.193.014zm-4.144-11.8c-.41 0-.807-.215-1.022-.597-.317-.567-.117-1.28.447-1.598l11.18-6.286c.57-.317 1.28-.117 1.6.447.318.564.118 1.278-.446 1.595l-11.18 6.287c-.18.1-.38.15-.573.15zm-7.933-9.67c-.27 0-.54-.093-.762-.283-.49-.42-.54-1.16-.12-1.652l8.35-9.726c.42-.49 1.16-.547 1.657-.126.49.42.547 1.16.126 1.652l-8.35 9.73c-.233.27-.56.407-.89.407zm-10.76-6.373c-.137 0-.277-.024-.413-.076-.605-.228-.91-.904-.683-1.51l4.52-11.997c.228-.6.904-.91 1.51-.68.604.23.91.908.682 1.51l-4.52 12c-.18.47-.63.76-1.1.76z" fill="#FFF"/></svg>