<svg xmlns="http://www.w3.org/2000/svg" viewBox="0 0 100 100"><g fill="#FFF"><path d="M84.616 32.412c0 .204-.053.407-.158.59l-7.692 13.323c-.21.365-.6.59-1.02.59H60.36c-.42 0-.81-.225-1.02-.59l-7.693-13.323c-.21-.365-.21-.815 0-1.18L59.34 18.5c.21-.365.6-.59 1.02-.59h15.384c.42 0 .81.225 1.02.59l7.693 13.323c.106.182.16.385.16.59zm-9.553 12.144l7.01-12.144-7.01-12.144H61.04l-7.01 12.144 7.01 12.144h14.023z"/><path d="M84.616 32.412c0 .204-.053.407-.158.59l-7.692 13.323c-.21.365-.6.59-1.02.59-.422 0-.812-.225-1.022-.59l-7.692-13.323c-.21-.365-.21-.815 0-1.18L74.724 18.5c.21-.365.6-.59 1.02-.59.422 0 .812.225 1.022.59l7.692 13.323c.105.182.158.385.158.59zm-8.872 10.964l6.33-10.964-6.33-10.964-6.33 10.964 6.33 10.964z"/><path d="M69.23 32.412c0 .65-.527 1.18-1.178 1.18H52.668c-.65 0-1.18-.53-1.18-1.18s.53-1.18 1.18-1.18h15.384c.65 0 1.18.53 1.18 1.18z"/><path d="M92.308 45.735c0 .204-.053.407-.158.59l-7.692 13.323c-.21.365-.6.59-1.02.59H68.05c-.42 0-.81-.225-1.02-.59l-7.693-13.323c-.212-.365-.212-.815 0-1.18l7.69-13.322c.212-.365.6-.59 1.022-.59h15.38c.42 0 .81.225 1.02.59l7.69 13.323c.102.182.16.386.16.59zM82.755 57.88l7.01-12.145-7.01-12.144H68.733l-7.01 12.15 7.01 12.148h14.022z"/><path d="M92.308 45.735c0 .204-.053.407-.158.59l-7.692 13.323c-.21.365-.6.59-1.02.59-.422 0-.812-.225-1.022-.59l-7.692-13.323c-.21-.365-.21-.815 0-1.18l7.692-13.322c.21-.365.6-.59 1.02-.59.422 0 .812.225 1.022.59l7.692 13.323c.105.182.158.386.158.59zM83.436 56.7l6.33-10.964-6.33-10.964-6.33 10.964 6.33 10.964z"/><path d="M76.924 45.735c0 .65-.528 1.18-1.18 1.18H60.36c-.65 0-1.18-.53-1.18-1.18s.53-1.18 1.18-1.18h15.384c.65 0 1.18.53 1.18 1.18z"/><path d="M100 59.058c0 .204-.053.407-.158.59L92.15 72.97c-.21.366-.6.59-1.02.59H75.743c-.42 0-.81-.224-1.02-.59L67.03 59.65c-.21-.365-.21-.815 0-1.18l7.693-13.322c.21-.365.6-.59 1.02-.59H91.13c.42 0 .81.225 1.02.59l7.693 13.323c.107.18.16.39.16.59zm-9.553 12.144l7.01-12.144-7.01-12.144H76.425l-7.01 12.144 7.01 12.144h14.022z"/><path d="M100 59.058c0 .204-.053.407-.158.59L92.15 72.97c-.21.366-.6.59-1.02.59-.422 0-.812-.224-1.022-.59l-7.692-13.32c-.21-.365-.21-.815 0-1.18l7.692-13.322c.21-.365.6-.59 1.02-.59.422 0 .812.225 1.022.59l7.692 13.323c.105.18.158.39.158.59zm-8.872 10.965l6.33-10.964-6.33-10.97-6.33 10.96 6.33 10.963z"/><path d="M84.616 59.058c0 .65-.528 1.18-1.18 1.18H68.053c-.65 0-1.18-.53-1.18-1.18 0-.65.53-1.18 1.18-1.18h15.384c.652 0 1.18.53 1.18 1.18zM69.23 32.412c0 .204-.052.407-.157.59L61.38 46.325c-.21.365-.6.59-1.02.59H44.976c-.42 0-.81-.225-1.02-.59l-7.693-13.323c-.21-.365-.21-.815 0-1.18L43.955 18.5c.21-.365.6-.59 1.02-.59H60.36c.42 0 .81.225 1.02.59l7.693 13.323c.106.182.158.385.158.59zm-9.55 12.144l7.01-12.144-7.01-12.144H45.656l-7.01 12.144 7.01 12.144H59.68z"/><path d="M69.23 32.412c0 .204-.052.407-.157.59L61.38 46.325c-.21.365-.6.59-1.02.59-.42 0-.81-.225-1.02-.59l-7.693-13.323c-.21-.365-.21-.815 0-1.18L59.34 18.5c.21-.365.6-.59 1.02-.59.42 0 .81.225 1.02.59l7.693 13.323c.106.182.158.385.158.59zm-8.87 10.964l6.33-10.964-6.33-10.964-6.33 10.964 6.33 10.964z"/><path d="M53.847 32.412c0 .65-.528 1.18-1.18 1.18H37.284c-.65 0-1.18-.53-1.18-1.18s.53-1.18 1.18-1.18h15.384c.652 0 1.18.53 1.18 1.18zm-27.75-5.452c0 .2-.05.402-.16.588l-7.69 13.322c-.327.565-1.048.758-1.61.433-.566-.326-.76-1.047-.434-1.61l7.692-13.324c.326-.57 1.047-.76 1.61-.44.38.22.59.612.59 1.02zM41.48 53.605c0 .2-.05.403-.158.59l-7.692 13.32c-.326.565-1.047.758-1.61.433-.565-.327-.758-1.048-.433-1.612l7.692-13.323c.32-.564 1.04-.757 1.61-.432.38.22.59.62.59 1.03zm15.384 0c0 .2-.05.403-.158.59l-7.692 13.322c-.326.564-1.047.757-1.61.432-.565-.33-.758-1.05-.433-1.62l7.7-13.32c.33-.566 1.05-.76 1.61-.43.38.22.59.61.59 1.02z"/><path d="M18.404 40.28c0 .652-.528 1.18-1.18 1.18H1.84c-.65 0-1.18-.528-1.18-1.18 0-.65.53-1.178 1.18-1.178h15.384c.652 0 1.18.527 1.18 1.18zm38.46 39.97c0 .407-.21.803-.59 1.02-.564.327-1.285.133-1.61-.43L46.97 67.515c-.325-.564-.13-1.285.433-1.61.564-.327 1.285-.133 1.61.43l7.693 13.324c.107.18.158.39.158.59zm-14.724 0c0 1.016-.824 1.84-1.84 1.84H24.916c-.657 0-1.265-.35-1.593-.92L15.63 67.847c-.507-.88-.206-2.005.674-2.513s2.005-.207 2.513.673l7.16 12.403H40.3c1.017 0 1.84.824 1.84 1.84zm-8.352-13.324c0 .408-.212.804-.59 1.022-.564.326-1.285.132-1.61-.432l-7.693-13.323c-.326-.564-.132-1.285.432-1.61.564-.327 1.285-.133 1.61.43l7.693 13.324c.107.186.158.39.158.59z"/><path d="M26.756 80.25c0 .635-.33 1.253-.92 1.594-.88.508-2.005.207-2.513-.673L15.63 67.85c-.507-.88-.206-2.005.674-2.513s2.005-.207 2.513.673l7.693 13.32c.167.29.246.606.246.92z"/><path d="M33.788 66.928c0 .2-.05.403-.158.59L25.938 80.84c-.326.564-1.047.757-1.61.432-.565-.326-.758-1.047-.433-1.61l7.692-13.324c.326-.564 1.047-.757 1.61-.432.38.218.59.615.59 1.022z"/><path d="M49.172 66.927c0 .65-.528 1.18-1.18 1.18H32.61c-.65 0-1.18-.53-1.18-1.18s.53-1.18 1.18-1.18h15.384c.652 0 1.18.53 1.18 1.18zm-30.768 0c0 .407-.212.803-.59 1.02-.564.327-1.285.133-1.61-.43L8.51 54.193c-.325-.564-.13-1.285.433-1.61.564-.327 1.285-.133 1.61.43l7.693 13.324c.107.185.158.388.158.588zM42.14 53.6c0 .636-.33 1.254-.92 1.595-.88.508-2.004.207-2.512-.673L31.016 41.2c-.508-.88-.207-2.004.673-2.512s2-.207 2.51.673l7.69 13.33c.162.29.242.61.242.92z"/><path d="M19.064 66.925c0 .636-.33 1.254-.92 1.595-.88.508-2.005.207-2.513-.673L7.94 54.524c-.51-.88-.208-2.005.672-2.513.88-.5 2.005-.2 2.513.68l7.692 13.326c.168.29.247.606.247.918zm7.032-13.322c0 .408-.212.804-.59 1.022-.564.326-1.285.132-1.61-.432L16.202 40.87c-.326-.564-.132-1.285.432-1.61.564-.327 1.285-.133 1.61.43l7.693 13.324c.107.186.158.39.158.59z"/><path d="M34.45 40.28c0 .635-.33 1.253-.92 1.594-.88.508-2.006.207-2.514-.673l-7.16-12.4h-13.26l-6.63 11.48 7.16 12.41c.507.88.206 2.007-.674 2.515s-2.005.207-2.513-.673L.24 41.2c-.33-.568-.33-1.27 0-1.84l7.7-13.32c.328-.57.935-.92 1.592-.92h15.384c.657 0 1.265.35 1.593.92l7.69 13.32c.17.29.25.607.25.92z"/><path d="M11.372 26.96c0 .31-.08.627-.247.917L3.965 40.28l7.16 12.404c.508.88.207 2.005-.673 2.513s-2.005.207-2.513-.673L.24 41.2c-.33-.568-.33-1.27 0-1.84l7.7-13.32c.507-.88 1.632-1.182 2.512-.673.59.34.92.96.92 1.594zm5.852 13.32L9.532 26.96m55.685 39.967c0 .318-.082.635-.246.92L57.28 81.17c-.33.57-.936.92-1.593.92H40.3c-1.015 0-1.84-.824-1.84-1.84s.825-1.84 1.84-1.84h14.323l6.63-11.483-6.63-11.483H40.3c-1.015 0-1.84-.824-1.84-1.84s.825-1.84 1.84-1.84h15.385c.657 0 1.265.35 1.593.92l7.692 13.323c.165.285.247.602.247.92z"/><path d="M64.556 66.927c0 .65-.528 1.18-1.18 1.18H47.994c-.65 0-1.18-.53-1.18-1.18s.53-1.18 1.18-1.18h15.384c.65 0 1.18.53 1.18 1.18z"/></g></svg>