<svg xmlns="http://www.w3.org/2000/svg" viewBox="0 0 380 50"><path d="M54.97 49.12V17.434c0-8.738 7.19-15.927 16.716-15.927 5.25 0 10.5 2.138 13.608 6.61 3.11-4.47 8.36-6.61 13.607-6.61 9.53 0 16.72 7.19 16.72 15.927V49.12h-8.55V19.38c0-5.93-3.3-9.714-8.36-9.714-5.54 0-9.13 3.106-9.13 11.075v28.38h-8.56V20.75c0-7.97-3.596-11.075-9.136-11.075-5.053 0-8.36 3.785-8.36 9.713v29.74h-8.55zm157.1-45.438l-14.106 22.14 15.04 23.298h-9.506L192.82 32.958 182.377 49.12h-9.43l14.965-23.3-14.418-22.138h9.82l9.507 14.922 9.44-14.922h9.818zM50.103 24.82c0 13.71-10.7 24.3-24.52 24.3-13.598 0-24.408-10.814-24.408-24.3C1.175 11.34 11.985.54 25.582.54c13.82 0 24.52 10.582 24.52 24.283zm-40.793 0c0 9.81 6.91 17.055 16.162 17.055 9.585 0 16.495-7.134 16.495-17.054 0-10.03-6.8-17.04-16.495-17.04-9.364 0-16.162 7.24-16.162 17.05zm206.197 21.413c0-1.545 1.27-2.815 2.815-2.815s2.815 1.27 2.815 2.815c0 1.557-1.27 2.815-2.815 2.815s-2.815-1.258-2.815-2.815zm2.815 2.396c1.317 0 2.396-1.08 2.396-2.4s-1.08-2.4-2.396-2.4c-1.318 0-2.396 1.08-2.396 2.394 0 1.32 1.078 2.396 2.396 2.396zm-1.066-3.96h.994c.563 0 1.21.093 1.21.96 0 .523-.324.63-.515.73l.55 1.28h-.598l-.468-1.2h-.64v1.198h-.54v-2.97zm.54 1.29h.646c.25 0 .455-.12.455-.383s-.18-.395-.503-.395h-.6v.78zM145.11.653c-15.11 0-24.336 10.588-24.336 24.027 0 13.83 9.62 25.02 23.157 25.02 4.85 0 7.7-.68 10.65-2.79v-9.62c-2.656 2.5-5.94 4.17-9.76 4.17-9.03 0-15.402-7.36-15.402-16.09 0-8.93 5.98-16.48 15.504-16.48 7.85 0 15.306 4.505 15.306 13.34v26.49h8.635V23.014c0-13.534-9.223-22.36-23.743-22.36z" fill="#78787A"/><path fill="#0080BB" d="M237.04 44.52h92.895v.57H237.04z"/><path d="M236.59 25.885v-.05c0-5.114 3.906-9.303 9.464-9.303 3.382 0 5.427 1.156 7.184 2.8l-2.07 2.34c-1.47-1.337-3.042-2.236-5.14-2.236-3.513 0-6.055 2.826-6.055 6.347v.05c0 3.522 2.542 6.4 6.056 6.4 2.25 0 3.69-.9 5.26-2.34l2.07 2.057c-1.914 1.953-4.01 3.187-7.445 3.187-5.348 0-9.333-4.087-9.333-9.252zm17.673 0v-.05c0-5.063 3.984-9.303 9.62-9.303 5.637 0 9.568 4.188 9.568 9.25v.05c0 5.063-3.98 9.304-9.62 9.304-5.63 0-9.56-4.188-9.56-9.25zm15.808 0v-.05c0-3.496-2.59-6.4-6.23-6.4-3.644 0-6.186 2.853-6.186 6.348v.05c0 3.496 2.595 6.4 6.238 6.4 3.646 0 6.19-2.853 6.19-6.348zm4.75 0v-.05c0-5.037 3.93-9.303 9.47-9.303 3.2 0 5.166.874 7.053 2.44l-2.044 2.39c-1.418-1.18-2.808-1.926-5.14-1.926-3.383 0-5.95 2.903-5.95 6.347v.05c0 3.7 2.49 6.426 6.237 6.426 1.73 0 3.305-.54 4.43-1.37v-3.36h-4.69v-2.75h7.81v7.552c-1.807 1.516-4.4 2.8-7.652 2.8-5.74 0-9.515-4.007-9.515-9.25zm20.22-9.045h2.99l9.832 12.437V16.84h3.17v17.988h-2.7L298.21 22.03v12.8h-3.17V16.84zm19.874 0h3.225v17.988h-3.224V16.84zm11.744 2.93h-5.817v-2.93h14.89v2.93h-5.82v15.058h-3.25V19.77zm11.72-2.93h3.227v17.988h-3.225V16.84zm5.56 0h3.565l5.53 13.825 5.506-13.825h3.487l-7.63 18.117h-2.83l-7.63-18.117zm20.19 0h13.604v2.827h-10.38v4.677h9.2v2.827h-9.2v4.84h10.51v2.828h-13.74V16.84z" fill="#0082CB"/><path d="M335.742 40.654h3.614c.97 0 1.735.278 2.22.752.353.363.547.812.547 1.358v.024c0 1.104-.68 1.674-1.347 1.965 1.007.304 1.82.886 1.82 2.05v.024c0 1.456-1.226 2.317-3.082 2.317h-3.772v-8.49zm3.457 3.784c1.15 0 1.95-.52 1.95-1.516v-.024c0-.837-.67-1.383-1.88-1.383h-2.59v2.923h2.51zm.33 3.846c1.285 0 2.085-.57 2.085-1.517v-.024c0-.922-.776-1.455-2.256-1.455h-2.68v2.996h2.85zm4.59-3.36V44.9c0-2.342 1.76-4.392 4.343-4.392s4.32 2.025 4.32 4.366v.024c0 2.342-1.76 4.392-4.344 4.392s-4.318-2.025-4.318-4.367zm7.666 0V44.9c0-1.93-1.407-3.507-3.348-3.507-1.94 0-3.325 1.553-3.325 3.48v.025c0 1.93 1.406 3.506 3.35 3.506 1.94 0 3.32-1.552 3.32-3.48zm2.65 0V44.9c0-2.342 1.76-4.392 4.344-4.392s4.32 2.025 4.32 4.366v.024c0 2.342-1.76 4.392-4.344 4.392s-4.318-2.025-4.318-4.367zm7.667 0V44.9c0-1.93-1.406-3.507-3.347-3.507-1.94 0-3.322 1.553-3.322 3.48v.025c0 1.93 1.405 3.506 3.347 3.506 1.94 0 3.324-1.552 3.324-3.48zm2.406 2.984l.595-.703c.885.8 1.733 1.2 2.91 1.2 1.14 0 1.893-.606 1.893-1.443v-.024c0-.788-.426-1.237-2.21-1.613-1.952-.425-2.85-1.056-2.85-2.45v-.024c0-1.33 1.177-2.31 2.79-2.31 1.237 0 2.123.356 2.984 1.047l-.556.74c-.79-.644-1.578-.923-2.45-.923-1.106 0-1.81.607-1.81 1.37v.025c0 .8.44 1.25 2.306 1.65 1.893.413 2.767 1.104 2.767 2.4v.026c0 1.456-1.215 2.4-2.9 2.4-1.348 0-2.45-.446-3.47-1.356zm10.39-6.368h-2.85v-.886h6.67v.885h-2.85v7.6h-.97v-7.6z" fill="#0080BB"/></svg>