<svg xmlns="http://www.w3.org/2000/svg" viewBox="0 0 100 100"><path d="M36.04 70.42c-5.454 0-10.582-2.123-14.44-5.98S15.62 55.455 15.62 50s2.124-10.583 5.98-14.44 8.986-5.98 14.44-5.98c5.456 0 10.584 2.123 14.44 5.98 3.858 3.857 5.982 8.985 5.982 14.44s-2.124 10.583-5.98 14.44c-3.858 3.857-8.986 5.98-14.44 5.98zm0-37.156c-9.227 0-16.735 7.508-16.735 16.736s7.508 16.736 16.736 16.736c9.23 0 16.74-7.508 16.74-16.736s-7.51-16.736-16.74-16.736zm42.57 50.894c-4.184 0-7.586-3.403-7.586-7.585 0-4.183 3.403-7.585 7.585-7.585s7.58 3.403 7.58 7.585-3.4 7.585-7.59 7.585zm0-12.808c-2.88 0-5.224 2.343-5.224 5.223s2.343 5.223 5.223 5.223 5.22-2.343 5.22-5.223-2.35-5.223-5.23-5.223zm5.364-13.765c-4.183 0-7.585-3.403-7.585-7.585 0-4.183 3.4-7.585 7.58-7.585s7.58 3.403 7.58 7.585c0 4.183-3.41 7.585-7.59 7.585zm0-12.808c-2.88 0-5.223 2.343-5.223 5.223s2.35 5.223 5.23 5.223S89.2 52.88 89.2 50s-2.344-5.223-5.224-5.223zM55.086 100c-4.183 0-7.585-3.403-7.585-7.585s3.41-7.585 7.59-7.585c4.19 0 7.59 3.403 7.59 7.585S59.27 100 55.09 100zm0-12.808c-2.88 0-5.223 2.343-5.223 5.223s2.343 5.223 5.223 5.223 5.223-2.343 5.223-5.223-2.35-5.223-5.23-5.223z" fill="#FFF"/><path d="M78.61 31.013c-4.184 0-7.586-3.403-7.586-7.585 0-4.183 3.403-7.585 7.585-7.585s7.58 3.403 7.58 7.585-3.4 7.585-7.59 7.585zm0-12.808c-2.88 0-5.224 2.343-5.224 5.223s2.343 5.223 5.223 5.223 5.22-2.34 5.22-5.22-2.35-5.22-5.23-5.22zM55.086 15.17c-4.183 0-7.585-3.402-7.585-7.584S50.91 0 55.09 0s7.585 3.403 7.585 7.585-3.402 7.586-7.584 7.586zm0-12.808c-2.88 0-5.223 2.343-5.223 5.223s2.343 5.223 5.223 5.223 5.223-2.343 5.223-5.223-2.35-5.223-5.23-5.223zM36.04 77.6c-7.372 0-14.303-2.87-19.516-8.083C11.31 64.304 8.44 57.372 8.44 50s2.87-14.304 8.084-19.517C21.737 25.27 28.668 22.4 36.04 22.4c7.374 0 14.305 2.87 19.518 8.083C60.77 35.696 63.642 42.627 63.642 50s-2.87 14.304-8.084 19.517C50.345 74.73 43.414 77.6 36.04 77.6zm0-52.84c-6.74 0-13.078 2.626-17.845 7.393C13.428 36.92 10.803 43.258 10.803 50c0 6.74 2.625 13.08 7.392 17.846 4.767 4.767 11.105 7.392 17.846 7.392 6.75 0 13.08-2.625 17.85-7.392C58.66 63.08 61.28 56.74 61.28 50c0-6.742-2.625-13.08-7.392-17.846-4.767-4.767-11.105-7.393-17.847-7.393z" fill="#FFF"/><g fill="#FFF"><path d="M36.04 60.35c-5.706 0-10.35-4.643-10.35-10.35 0-3.89 2.15-7.417 5.61-9.203.58-.3 1.292-.072 1.59.508.3.58.073 1.292-.507 1.59-2.67 1.38-4.33 4.1-4.33 7.104 0 4.4 3.583 7.98 7.988 7.98 4.41 0 7.99-3.59 7.99-7.99 0-.66.53-1.18 1.18-1.18.66 0 1.18.53 1.18 1.18.01 5.71-4.64 10.35-10.35 10.35z"/><path d="M45.21 51.18c-.652 0-1.18-.528-1.18-1.18 0-3.003-1.66-5.725-4.33-7.103-.58-.3-.808-1.012-.51-1.59.3-.58 1.012-.808 1.592-.51 3.46 1.787 5.61 5.313 5.61 9.204 0 .66-.53 1.18-1.182 1.18zm-9.17-5.365c-.65 0-1.18-.53-1.18-1.18V37.98c0-.652.53-1.18 1.18-1.18.653 0 1.182.528 1.182 1.18v6.654c0 .652-.528 1.18-1.18 1.18z"/></g><path d="M40.72 33.167c-.204 0-.41-.052-.596-.162-.563-.33-.753-1.053-.423-1.616l11.1-18.97c.33-.57 1.06-.76 1.62-.43s.76 1.05.43 1.61L41.74 32.58c-.22.377-.615.586-1.02.586zM51.813 88.16c-.406 0-.8-.21-1.02-.586L39.7 68.604c-.33-.562-.14-1.286.423-1.615.563-.33 1.287-.14 1.616.42l11.09 18.97c.33.56.14 1.28-.43 1.61-.19.11-.39.16-.6.16zm25.153-36.98H54.62c-.652 0-1.18-.528-1.18-1.18s.528-1.18 1.18-1.18h22.346c.652 0 1.18.528 1.18 1.18s-.528 1.18-1.18 1.18zm-24.76-9.782c-.385 0-.763-.188-.99-.535-.357-.546-.203-1.278.343-1.635l20.84-13.62c.54-.356 1.27-.203 1.63.344.35.546.2 1.278-.35 1.635L52.85 41.205c-.2.13-.424.193-.645.193zM73.044 74c-.222 0-.446-.062-.645-.193L51.55 60.19c-.546-.358-.7-1.09-.343-1.636.357-.546 1.09-.7 1.635-.343l20.84 13.62c.547.36.7 1.09.344 1.64-.227.35-.605.54-.99.54z" fill="#FFF"/></svg>